<svg xmlns="http://www.w3.org/2000/svg" viewBox="0 0 154 154"><path d="M78.5 0c12.3.2 24 2.8 34.9 8.8 2.3 1.3 4.6 2.7 6.7 4.4 8.6 7.1 8.4 14.8-1.3 20.4-9 5.2-16.4 12.2-23 20.2-1.7 2.1-2.9 2.4-5.4 1.2-12.1-6.1-23.2-4-32.8 5.6-2.3 2.3-3.3 2-5.2-.2-6.1-6.9-11.9-13.9-15.1-22.9-4-11.4-1.5-20.1 8-27.1C55.2 3.2 66.4-.1 78.5 0zM97.5 137.1c.2-9.3-2.2-18.1-5.1-26.7-.9-2.6-.5-3.9 1.7-5.4 11.3-7.8 15.1-18.8 12.1-32.3-.6-2.8-.6-3.8 2.4-4.5 9.3-2.2 18.5-4.1 28.1-1.9 10.6 2.5 15.9 8.7 17.1 19.8 1.4 13-1.7 25-8.1 36.1-7 12.1-16.1 21.9-28.1 28.7-.7.4-1.4.8-2.2 1.2-11.2 5.3-17.9.9-17.9-11.8v-3.2zM0 87c0-.9.1-1.7.1-2.6 1.1-10.6 6.7-14.3 16.2-10 7.2 3.3 14.5 6.6 22.3 6.8 7.9.2 11.4 3 13.4 11.3 2.5 10.6 11 16.1 21.1 18 3.9.7 3.9 2.3 3.3 5.4-1.5 7.2-3.2 14.4-6.5 21.1-7.4 14.5-18.1 18.6-32.2 11.5C12.8 136.2 2.9 113.9 0 87z"/><path d="M99.6 81.9c-.1 12.4-10.2 22.7-22 22.6-12-.2-21.9-10.5-21.9-22.8 0-12.7 10-22.8 22.4-22.6 12 .1 21.6 10.2 21.5 22.8z"/></svg>