<svg xmlns="http://www.w3.org/2000/svg" viewBox="0 0 204.1 255.2"><path d="M125.8 2.1c-8-1.9-23.3-2.8-37-1.3-17.8 1.9-46.6 14.6-63.2 33-31.9 35.3-34.3 90.6-5.5 128.5 15.4 20.3 35.5 33.3 60.3 38.9 1.9.4 4.1.3 4 3.3-.1 8.2-.1 16.3 0 24.5 0 2.3-1.2 2.3-2.8 2.3-1.5 0-2.7.2-2.9-2.1-.7-6.9-.8-6.9-7.7-6.9-1.5 0-3 .2-4.5 0-4.2-.5-6.5.8-5.7 5.4.6 3.4-1.2 3.8-4 3.7-4.2-.2-8.3-.1-12.5 0-8.1 0-9.8 1.8-9.9 10.1-.1 4.6.6 9.3-.5 13.9h135c.1-5.3.2-10.7.1-16 0-5.6-2.2-7.9-7.8-8-5-.1-10-.1-15 0-1.9 0-3.4-.2-3-2.6 1.1-6.1-2.2-7.1-7.1-6.4-1.6.2-3.4.2-5 0-4.7-.7-6.5 1.3-5.9 5.9.3 2.2-.2 3.3-2.9 3.2-2.7 0-3.4-.8-3.3-3.4.2-6.8.4-13.7-.1-20.5-.3-4.2 1.2-5.5 5.2-6.4 43.7-9.6 76.5-47.4 79.6-91.3 3.7-51-28.3-95.8-77.9-107.8zm-24.1 189.1c-49.3-.1-89.6-40.4-89.6-89.7 0-49.4 40.6-90 89.9-90 49.5.1 89.9 40.6 89.8 90.1 0 49.6-40.4 89.7-90.1 89.6z"/></svg>