<svg xmlns="http://www.w3.org/2000/svg" viewBox="0 0 612.5 613.2"><g fill="#FFF"><path d="M312 0c48.9.8 95.4 11.1 138.7 35 9.1 5.2 18.3 10.7 26.6 17.5 34.2 28.2 33.4 58.8-5.2 81.1-35.8 20.7-65.2 48.5-91.4 80.3-6.8 8.3-11.5 9.5-21.5 4.8-48.1-24.2-92.2-15.9-130.3 22.3-9.1 9.1-13.1 7.9-20.7-.8-24.2-27.4-47.3-55.2-60-91-15.9-45.3-6-79.9 31.8-107.7C219.4 12.7 263.9-.4 312 0zM387.5 544.8c.8-37-8.7-71.9-20.3-106.1-3.6-10.3-2-15.5 6.8-21.5 44.9-31 60-74.7 48.1-128.4-2.4-11.1-2.4-15.1 9.5-17.9 37-8.7 73.5-16.3 111.7-7.6 42.1 9.9 63.2 34.6 68 78.7 5.6 51.7-6.8 99.4-32.2 143.5-27.8 48.1-64 87-111.7 114.1-2.8 1.6-5.6 3.2-8.7 4.8-44.5 21.1-71.1 3.6-71.1-46.9-.1-4.3-.1-8.7-.1-12.7zM0 345.7c0-3.6.4-6.8.4-10.3 4.4-42.1 26.6-56.8 64.4-39.7 28.6 13.1 57.6 26.2 88.6 27 31.4.8 45.3 11.9 53.3 44.9 9.9 42.1 43.7 64 83.9 71.5 15.5 2.8 15.5 9.1 13.1 21.5-6 28.6-12.7 57.2-25.8 83.9-29.4 57.6-71.9 73.9-128 45.7C50.9 541.3 11.5 452.6 0 345.7z"/><path d="M395.8 325.5c-.4 49.3-40.5 90.2-87.4 89.8-47.7-.8-87-41.7-87-90.6 0-50.5 39.7-90.6 89-89.8 47.7.4 85.8 40.5 85.4 90.6z"/></g></svg>