<svg xmlns="http://www.w3.org/2000/svg" viewBox="0 0 489.2 612"><path fill="#FFF" d="M301.7 5C282.5.4 245.8-1.7 213 1.9 170.3 6.5 101.2 36.9 61.4 81c-76.5 84.7-82.3 217.3-13.2 308.2 36.9 48.7 85.1 79.9 144.6 93.3 4.6 1 9.8.7 9.6 7.9-.2 19.7-.2 39.1 0 58.8 0 5.5-2.9 5.5-6.7 5.5-3.6 0-6.5.5-7-5-1.7-16.5-1.9-16.5-18.5-16.5-3.6 0-7.2.5-10.8 0-10.1-1.2-15.6 1.9-13.7 12.9 1.4 8.2-2.9 9.1-9.6 8.9-10.1-.5-19.9-.2-30 0-19.4 0-23.5 4.3-23.7 24.2-.2 11 1.4 22.3-1.2 33.3h323.7c.2-12.7.5-25.7.2-38.4 0-13.4-5.3-18.9-18.7-19.2-12-.2-24-.2-36 0-4.6 0-8.2-.5-7.2-6.2 2.6-14.6-5.3-17-17-15.3-3.8.5-8.2.5-12 0-11.3-1.7-15.6 3.1-14.1 14.1.7 5.3-.5 7.9-7 7.7-6.5 0-8.2-1.9-7.9-8.2.5-16.3 1-32.9-.2-49.2-.7-10.1 2.9-13.2 12.5-15.3 104.8-23 183.5-113.7 190.9-218.9 9-122.4-67.7-229.8-186.7-258.6zm-57.8 453.5C125.7 458.3 29 361.6 29 243.4c0-118.5 97.4-215.8 215.6-215.8 118.7.2 215.6 97.4 215.4 216.1 0 118.9-96.9 215.1-216.1 214.8z"/></svg>