<?xml version="1.0" encoding="utf-8"?>
<!-- Generator: Adobe Illustrator 18.0.0, SVG Export Plug-In . SVG Version: 6.00 Build 0)  -->
<!DOCTYPE svg PUBLIC "-//W3C//DTD SVG 1.1//EN" "http://www.w3.org/Graphics/SVG/1.1/DTD/svg11.dtd">
<svg version="1.1" id="Layer_1" xmlns="http://www.w3.org/2000/svg" xmlns:xlink="http://www.w3.org/1999/xlink" x="0px" y="0px"
	 viewBox="0 0 612.5 613.2" enable-background="new 0 0 612.5 613.2" xml:space="preserve">
<g>
	<path fill="#FFFFFF" d="M312,0c48.9,0.8,95.4,11.1,138.7,35c9.1,5.2,18.3,10.7,26.6,17.5c34.2,28.2,33.4,58.8-5.2,81.1
		c-35.8,20.7-65.2,48.5-91.4,80.3c-6.8,8.3-11.5,9.5-21.5,4.8c-48.1-24.2-92.2-15.9-130.3,22.3c-9.1,9.1-13.1,7.9-20.7-0.8
		c-24.2-27.4-47.3-55.2-60-91c-15.9-45.3-6-79.9,31.8-107.7C219.4,12.7,263.9-0.4,312,0z"/>
	<path fill="#FFFFFF" d="M387.5,544.8c0.8-37-8.7-71.9-20.3-106.1c-3.6-10.3-2-15.5,6.8-21.5c44.9-31,60-74.7,48.1-128.4
		c-2.4-11.1-2.4-15.1,9.5-17.9c37-8.7,73.5-16.3,111.7-7.6c42.1,9.9,63.2,34.6,68,78.7c5.6,51.7-6.8,99.4-32.2,143.5
		c-27.8,48.1-64,87-111.7,114.1c-2.8,1.6-5.6,3.2-8.7,4.8c-44.5,21.1-71.1,3.6-71.1-46.9C387.5,553.2,387.5,548.8,387.5,544.8z"/>
	<path fill="#FFFFFF" d="M0,345.7c0-3.6,0.4-6.8,0.4-10.3c4.4-42.1,26.6-56.8,64.4-39.7c28.6,13.1,57.6,26.2,88.6,27
		c31.4,0.8,45.3,11.9,53.3,44.9c9.9,42.1,43.7,64,83.9,71.5c15.5,2.8,15.5,9.1,13.1,21.5c-6,28.6-12.7,57.2-25.8,83.9
		c-29.4,57.6-71.9,73.9-128,45.7C50.9,541.3,11.5,452.6,0,345.7z"/>
	<path fill="#FFFFFF" d="M395.8,325.5c-0.4,49.3-40.5,90.2-87.4,89.8c-47.7-0.8-87-41.7-87-90.6c0-50.5,39.7-90.6,89-89.8
		C358.1,235.3,396.2,275.4,395.8,325.5z"/>
</g>
</svg>
