<?xml version="1.0" encoding="utf-8"?>
<!-- Generator: Adobe Illustrator 18.0.0, SVG Export Plug-In . SVG Version: 6.00 Build 0)  -->
<!DOCTYPE svg PUBLIC "-//W3C//DTD SVG 1.1//EN" "http://www.w3.org/Graphics/SVG/1.1/DTD/svg11.dtd">
<svg version="1.1" id="Layer_1" xmlns="http://www.w3.org/2000/svg" xmlns:xlink="http://www.w3.org/1999/xlink" x="0px" y="0px"
	 viewBox="0 0 489.2 612" enable-background="new 0 0 489.2 612" xml:space="preserve">
<path fill="#FFFFFF" d="M301.7,5c-19.2-4.6-55.9-6.7-88.7-3.1c-42.7,4.6-111.8,35-151.6,79.1c-76.5,84.7-82.3,217.3-13.2,308.2
	c36.9,48.7,85.1,79.9,144.6,93.3c4.6,1,9.8,0.7,9.6,7.9c-0.2,19.7-0.2,39.1,0,58.8c0,5.5-2.9,5.5-6.7,5.5c-3.6,0-6.5,0.5-7-5
	c-1.7-16.5-1.9-16.5-18.5-16.5c-3.6,0-7.2,0.5-10.8,0c-10.1-1.2-15.6,1.9-13.7,12.9c1.4,8.2-2.9,9.1-9.6,8.9
	c-10.1-0.5-19.9-0.2-30,0c-19.4,0-23.5,4.3-23.7,24.2c-0.2,11,1.4,22.3-1.2,33.3c107.9,0,215.8,0,323.7,0
	c0.2-12.7,0.5-25.7,0.2-38.4c0-13.4-5.3-18.9-18.7-19.2c-12-0.2-24-0.2-36,0c-4.6,0-8.2-0.5-7.2-6.2c2.6-14.6-5.3-17-17-15.3
	c-3.8,0.5-8.2,0.5-12,0c-11.3-1.7-15.6,3.1-14.1,14.1c0.7,5.3-0.5,7.9-7,7.7c-6.5,0-8.2-1.9-7.9-8.2c0.5-16.3,1-32.9-0.2-49.2
	c-0.7-10.1,2.9-13.2,12.5-15.3c104.8-23,183.5-113.7,190.9-218.9C497.4,141.2,420.7,33.8,301.7,5z M243.9,458.5
	C125.7,458.3,29,361.6,29,243.4c0-118.5,97.4-215.8,215.6-215.8c118.7,0.2,215.6,97.4,215.4,216.1
	C460,362.6,363.1,458.8,243.9,458.5z"/>
</svg>
