<?xml version="1.0" encoding="utf-8"?>
<!-- Generator: Adobe Illustrator 18.1.0, SVG Export Plug-In . SVG Version: 6.00 Build 0)  -->
<svg version="1.1" id="Layer_1" xmlns="http://www.w3.org/2000/svg" xmlns:xlink="http://www.w3.org/1999/xlink" x="0px" y="0px"
	 viewBox="-1 0 165.8 183.8" enable-background="new -1 0 165.8 183.8" xml:space="preserve">
<g id="Layer_1_1_">
</g>
<g id="Layer_2">
	<g>
		<g>
			
				<path fill="none" stroke="#FFFFFF" stroke-width="1.5" stroke-linecap="round" stroke-linejoin="round" stroke-miterlimit="10" d="
				M12.8,31.9c0,0-8.9-1.2-8.9,4.7s8.7,12,8.7,12V54c0,0-11-3.6-12.5,4.2s12.5,11,12.5,11S0,69,1.6,78.6C3,84,8.9,82,12.6,79v2.9
				c0,0-6-0.1-8.3,1.9c-2.3,2-2.7,8,1.5,10.5c3.6,3.1,7.6,6.4,7.6,6.4s0.2,4.2,5,3.8c0,0,2.8,3.7,7,7s3.7,7.1,7,10
				c11.4,10.2,16.9,30.7,33.6,28.7c0,0,22.1,28,23.8,33.7"/>
			<path fill="none" stroke="#FFFFFF" stroke-width="1.5" stroke-miterlimit="10" d="M75.4,37.6c0,0-12.5-3.1-5.3-8.6"/>
			<path fill="none" stroke="#FFFFFF" stroke-width="1.5" stroke-miterlimit="10" d="M11.2,83.1c0,0-1.6,2.5-0.5,6.7
				C4.2,88.2,8.8,83.1,11.2,83.1z"/>
			<path fill="none" stroke="#FFFFFF" stroke-width="1.5" stroke-miterlimit="10" d="M1.8,79.2c0,0,0.1-5.4,4-6.8l0.1-1.7"/>
			<path fill="none" stroke="#FFFFFF" stroke-width="1.5" stroke-miterlimit="10" d="M75.1,66.1c0,0-15.8,19.5-15.2,33.7
				c0.7,10.2,3.9,12.4,3.9,12.4"/>
			<path fill="none" stroke="#FFFFFF" stroke-width="1.5" stroke-miterlimit="10" d="M69.5,51.7c-0.4,3.3,1.2,10.1,3.9,16.5"/>
			<path fill="none" stroke="#FFFFFF" stroke-width="1.5" stroke-miterlimit="10" d="M69.4,54.8c0,0-3-2.7-4.1-4.7
				c-4.4-7.7-5.4-15.4-0.8-20.3c2.4-2.6,4.6-1.4,6-0.8c0.6,0.2,2.3,4.6,4.2,7.3c2.1,3.2,5.7,6.8,6.9,8.1c0.3,0.3,0.5,0.6,0.6,1
				c0.5,1.4,1.7,4.8,2,6.2c0.3,1.9,9,16.7,9,16.7s5,4.4,5.6,24.9c0.5,15.8,3.1,18.9,6.1,21.9c35.3,34.5,59.1,68.9,59.1,68.9"/>
			<line fill="none" stroke="#FFFFFF" stroke-width="1.5" stroke-miterlimit="10" x1="72.5" y1="66.3" x2="65.3" y2="60.5"/>
			<path fill="none" stroke="#FFFFFF" stroke-width="1.5" stroke-miterlimit="10" d="M60.2,104.9c0,0-24.7,0.2-22.4,16.3"/>
			<path fill="none" stroke="#FFFFFF" stroke-width="1.5" stroke-miterlimit="10" d="M40.7,105.9c0,0-8.9,6.5-8.4,15.6"/>
			<path fill="none" stroke="#FFFFFF" stroke-width="1.5" stroke-miterlimit="10" d="M25.4,111.5c0,0-0.2-6.3,1.6-6.9"/>
		</g>
		<g>
			<path fill="none" stroke="#FFFFFF" stroke-width="1.5" stroke-miterlimit="10" d="M10.4,91.9c0,0,4.4,1,5.5-2.6
				c0.8-2.7-0.6-6.5-3.5-7.3"/>
			<g>
				<g>
					<g>
						<g>
							<defs>
								<path id="SVGID_1_" d="M60.4,105.6H17.5c-2.8,0-5.1-2.3-5.1-5.1V92c0,0,3.9-0.5,3.9-4.4c0-4.8-3.9-5.7-3.9-5.7V5.1
									c0-2.8,2.3-5.1,5.1-5.1h43.4c2.8,0,5.1,2.3,5.1,5.1v23.6c0,0-4.3,3-4.3,9.2c0,7.5,4.3,13.1,4.3,13.1v29.8
									C65.9,80.7,58.4,91.6,60.4,105.6z"/>
							</defs>
							<clipPath id="SVGID_2_">
								<use xlink:href="#SVGID_1_"  overflow="visible"/>
							</clipPath>
							<path clip-path="url(#SVGID_2_)" fill="none" stroke="#FFFFFF" stroke-width="1.5" stroke-miterlimit="10" d="M60.4,104.6H18
								c-2.8,0-5.1-2.3-5.1-5.1V6.1C13,3.3,15.2,1,18,1h42.3c2.8,0,5.1,2.3,5.1,5.1v93.5C65.4,102.4,63.1,104.6,60.4,104.6z"/>
						</g>
					</g>
					<g>
						<g>
							<defs>
								<path id="SVGID_3_" d="M60.4,105.6H17.5c-2.8,0-5.1-2.3-5.1-5.1V92c0,0,3.9-0.5,3.9-4.4c0-4.8-3.9-5.7-3.9-5.7V5.1
									c0-2.8,2.3-5.1,5.1-5.1h43.4c2.8,0,5.1,2.3,5.1,5.1v23.6c0,0-4.3,3-4.3,9.2c0,7.5,4.3,13.1,4.3,13.1v29.8
									C65.9,80.7,58.4,91.6,60.4,105.6z"/>
							</defs>
							<clipPath id="SVGID_4_">
								<use xlink:href="#SVGID_3_"  overflow="visible"/>
							</clipPath>
							<path clip-path="url(#SVGID_4_)" fill="none" stroke="#FFFFFF" stroke-width="1.5" stroke-miterlimit="10" d="M59.5,93.1
								H18.9c-1.5,0-2.8-1.3-2.8-2.8V10c0-1.5,1.3-2.8,2.8-2.8h40.6c1.5,0,2.8,1.3,2.8,2.8v80.3C62.3,91.9,61,93.1,59.5,93.1z"/>
						</g>
					</g>
					<g>
						<g>
							<defs>
								<path id="SVGID_5_" d="M60.4,105.6H17.5c-2.8,0-5.1-2.3-5.1-5.1V92c0,0,3.9-0.5,3.9-4.4c0-4.8-3.9-5.7-3.9-5.7V5.1
									c0-2.8,2.3-5.1,5.1-5.1h43.4c2.8,0,5.1,2.3,5.1,5.1v23.6c0,0-4.3,3-4.3,9.2c0,7.5,4.3,13.1,4.3,13.1v29.8
									C65.9,80.7,58.4,91.6,60.4,105.6z"/>
							</defs>
							<clipPath id="SVGID_6_">
								<use xlink:href="#SVGID_5_"  overflow="visible"/>
							</clipPath>
							
								<circle clip-path="url(#SVGID_6_)" fill="none" stroke="#FFFFFF" stroke-width="1.5" stroke-miterlimit="10" cx="39.5" cy="98.5" r="3.3"/>
						</g>
					</g>
				</g>
				<path fill="#FFFFFF" d="M51.5,5H26.9c-0.3,0-0.6-0.3-0.6-0.6l0,0c0-0.3,0.3-0.6,0.6-0.6h24.6c0.3,0,0.6,0.3,0.6,0.6l0,0
					C52,4.8,51.8,5,51.5,5z"/>
			</g>
		</g>
	</g>
</g>
</svg>
