<?xml version="1.0" encoding="utf-8"?>
<!-- Generator: Adobe Illustrator 18.0.0, SVG Export Plug-In . SVG Version: 6.00 Build 0)  -->
<!DOCTYPE svg PUBLIC "-//W3C//DTD SVG 1.1//EN" "http://www.w3.org/Graphics/SVG/1.1/DTD/svg11.dtd">
<svg version="1.1" id="Layer_1" xmlns="http://www.w3.org/2000/svg" xmlns:xlink="http://www.w3.org/1999/xlink" x="0px" y="0px"
	 viewBox="0 0 165 26" enable-background="new 0 0 165 26" xml:space="preserve">
<g>
	<g>
		<g id="KB9hn1_4_">
			<g>
				<path fill="#4283C4" d="M0.1,18.1c0-0.2,0-0.4,0-0.6c0.1-0.6,0.3-1.2,0.7-1.7C3,11.9,5.2,8,7.4,4.2C8.2,2.8,9,1.4,9.8,0
					c0,0,0,0,0.1,0c0,0,0,0,0,0.1c1.9,3.4,3.9,6.7,5.8,10.1c1.1,1.9,2.2,3.8,3.3,5.7c0.5,0.9,0.7,1.8,0.4,2.7
					c-0.2,0.6-0.4,1.2-0.7,1.8c-0.8,1.5-1.6,3-2.4,4.6c-0.3,0.5-0.7,0.8-1.3,0.8c-0.7,0.1-1.5,0.1-2.2,0.1c-0.1,0-0.2-0.1-0.2-0.2
					c-0.6-1-1.2-2.1-1.9-3.1c-0.3-0.4-0.5-0.8-0.8-1.3c-0.1,0.1-0.1,0.2-0.2,0.2c-0.8,1.4-1.7,2.8-2.5,4.2c-0.1,0.1-0.2,0.2-0.3,0.2
					c-0.6,0-1.2,0-1.7,0c-0.6,0-1.2-0.2-1.6-0.7c-0.2-0.3-0.4-0.6-0.6-0.9c-0.7-1.3-1.3-2.5-2-3.8c-0.3-0.5-0.5-1.1-0.7-1.7
					C0.2,18.6,0.2,18.4,0.1,18.1z M9.8,21.2c0.7,0,1.4,0,2,0c0.5,0,1-0.2,1.2-0.6c0.3-0.5,0.6-1.1,0.8-1.6c0.4-0.7,0.3-1.4-0.1-2.1
					c-1.1-1.8-2.1-3.6-3.2-5.5c-0.3-0.5-0.5-0.9-0.8-1.4c0,0-0.1,0.1-0.1,0.1c-1.3,2.3-2.7,4.6-4,6.9c-0.3,0.5-0.4,1-0.2,1.5
					c0.3,0.7,0.6,1.4,1,2.1c0.3,0.4,0.8,0.7,1.3,0.6c0.3,0,0.7,0,1,0C9.2,21.2,9.5,21.2,9.8,21.2c-0.1-0.1-0.1-0.2-0.1-0.2
					c-0.4-0.7-0.9-1.5-1.3-2.2c-0.3-0.5-0.4-1.1-0.1-1.7c0.5-0.9,1-1.7,1.6-2.6c0.2,0.4,0.5,0.8,0.7,1.1c0.2,0.4,0.4,0.8,0.7,1.1
					c0.5,0.7,0.4,1.4,0,2.2C10.8,19.7,10.3,20.4,9.8,21.2z"/>
			</g>
		</g>
		<g>
			<path fill="#4283C4" d="M18.2,25c0,0.4-0.3,0.7-0.7,0.7c-0.4,0-0.8-0.3-0.8-0.7c0-0.4,0.3-0.7,0.8-0.7
				C17.9,24.3,18.2,24.6,18.2,25z M16.9,25c0,0.3,0.2,0.6,0.6,0.6c0.3,0,0.6-0.3,0.6-0.6c0-0.3-0.2-0.6-0.6-0.6
				C17.1,24.5,16.9,24.7,16.9,25z M17.3,25.4h-0.2v-0.7c0.1,0,0.2,0,0.3,0c0.1,0,0.2,0,0.3,0.1c0,0,0.1,0.1,0.1,0.2
				c0,0.1-0.1,0.1-0.2,0.2v0c0.1,0,0.1,0.1,0.1,0.2c0,0.1,0,0.2,0.1,0.2h-0.2c0,0,0-0.1-0.1-0.2c0-0.1-0.1-0.1-0.2-0.1h-0.1V25.4z
				 M17.3,25L17.3,25c0.2,0,0.2,0,0.2-0.1c0-0.1,0-0.1-0.2-0.1c0,0-0.1,0-0.1,0V25z"/>
		</g>
	</g>
	<g>
		<g>
			<path d="M164.9,12.2c0,0.7-0.5,1.2-1.3,1.2c-0.7,0-1.3-0.5-1.3-1.2c0-0.7,0.6-1.2,1.3-1.2C164.3,11,164.9,11.6,164.9,12.2z
				 M162.6,12.2c0,0.5,0.4,1,1,1c0.5,0,0.9-0.4,0.9-1c0-0.5-0.4-1-0.9-1C163.1,11.3,162.6,11.7,162.6,12.2z M163.4,12.9h-0.3v-1.2
				c0.1,0,0.3,0,0.5,0c0.2,0,0.3,0,0.4,0.1c0.1,0.1,0.1,0.1,0.1,0.3c0,0.1-0.1,0.2-0.3,0.3v0c0.1,0,0.2,0.1,0.2,0.3
				c0,0.2,0.1,0.3,0.1,0.3h-0.3c0,0-0.1-0.2-0.1-0.3c0-0.1-0.1-0.2-0.3-0.2h-0.1V12.9z M163.4,12.2h0.1c0.2,0,0.3-0.1,0.3-0.2
				c0-0.1-0.1-0.2-0.3-0.2c-0.1,0-0.1,0-0.2,0V12.2z"/>
		</g>
		<g>
			<path d="M32.1,20.4c-1.3,0.6-2.6,0.7-4,0.7c-3.5,0-5.6-2.2-5.6-5.5c0-3.2,2.2-5.3,5.9-5.3c1.4,0,2.6,0.3,3.2,0.7L30.9,13
				c-0.6-0.3-1.5-0.5-2.2-0.5c-2,0-3.4,1.3-3.4,3.2c0,1.8,1.2,3.3,3.1,3.3c0.5,0,0.9-0.1,1-0.2l0.1-3.5h2.6L32.1,20.4z"/>
			<path d="M40.7,20c-0.9,0.7-2.2,1.1-3.4,1.1c-2.7,0-4-1.9-4-3.8c0-2.2,1.7-4.1,4.1-4.1c2.9,0,3.8,2,3.8,4.5h-5.2
				c0,0.6,0.4,1.5,1.8,1.5c0.9,0,1.4-0.3,2.1-0.7L40.7,20z M38.8,16.2c0-0.8-0.4-1.5-1.2-1.5c-0.8,0-1.5,0.7-1.6,1.5H38.8z"/>
			<path d="M46,13.1c2.8,0,4.2,1.7,4.2,4s-1.4,4-4.2,4c-2.8,0-4.2-1.7-4.2-4S43.2,13.1,46,13.1z M46,19.1c1.2,0,1.6-1.1,1.6-2
				s-0.4-2-1.6-2c-1.2,0-1.6,1.1-1.6,2S44.8,19.1,46,19.1z"/>
			<path d="M51.4,13.4H54v1h0c0.4-0.6,0.9-1.3,1.9-1.3c0.3,0,0.6,0,0.9,0.1l-0.3,2.5c-0.3-0.1-0.5-0.1-0.9-0.1
				c-0.9,0-1.5,0.7-1.5,0.9l0,4.3h-2.6L51.4,13.4z"/>
			<path d="M64.6,15.1L63.1,15c0.2,0.3,0.3,0.6,0.3,1c0,1.5-1.7,2.2-3.2,2.2c-0.5,0-1-0.1-1.1-0.1c0,0-0.2,0.2-0.2,0.4
				c0,0.3,0.3,0.4,0.9,0.4c1.7,0.1,4.2,0.4,4.2,2.6c0,2.2-2.3,3-4.2,3c-1.4,0-3.8-0.3-3.8-2.1c0-0.7,0.6-1.4,1.6-1.8v0
				c-1.1-0.2-1.5-0.6-1.5-1.2c0-0.9,1.2-1.5,1.9-1.7c-0.9-0.5-1.4-1-1.4-2c0-1.9,1.7-2.6,3.3-2.6c0.6,0,1.5,0.1,2,0.4l2.5-0.1V15.1z
				 M60.1,22.8c0.8,0,1.6-0.3,1.6-1c0-0.5-0.5-0.8-2.3-1c-0.5,0.3-0.8,0.6-0.8,1C58.5,22.6,59.3,22.8,60.1,22.8z M59,15.6
				c0,0.6,0.4,1.1,1.1,1.1c0.6,0,1.1-0.5,1.1-1.1c0-0.6-0.5-1.1-1.1-1.1C59.5,14.5,59,15,59,15.6z"/>
			<path d="M65.1,13.4h2.6l-0.1,7.4H65L65.1,13.4z M65.1,10.1h2.6v2.1h-2.6V10.1z"/>
			<path d="M69.1,14.4c1.3-0.8,2.5-1.2,4-1.2c1.4,0,2.3,0.7,2.3,2.1v3.6c0,0.3,0.1,0.5,0.4,0.5c0.1,0,0.2,0,0.3-0.1l0.3,1.4
				c-0.3,0.3-1.6,0.5-2,0.5c-0.7,0-1.2-0.3-1.3-0.8c-0.6,0.5-1.4,0.8-2.2,0.8c-1.4,0-2.4-0.8-2.4-2.1c0-1.5,0.9-2.1,2.5-2.5
				c0.5-0.1,1.2-0.2,1.9-0.3v-0.3c0-0.6-0.3-0.9-0.8-0.9c-0.8,0-1.5,0.5-2.2,0.8L69.1,14.4z M73,17.4c-0.1,0-0.2,0-0.4,0.1
				c-0.7,0-1.5,0.4-1.5,1.2c0,0.5,0.5,0.8,0.9,0.8c0.5,0,1-0.3,1-0.5V17.4z"/>
			<path d="M81.8,10.6H85l3.6,6.7h0l0.1-6.7h2.4l-0.1,10.2H88l-3.7-6.7h0l-0.1,6.7h-2.4L81.8,10.6z"/>
			<path d="M92.8,14.4c1.3-0.8,2.5-1.2,4-1.2c1.4,0,2.3,0.7,2.3,2.1v3.6c0,0.3,0.1,0.5,0.4,0.5c0.1,0,0.2,0,0.3-0.1l0.3,1.4
				c-0.3,0.3-1.6,0.5-2,0.5c-0.7,0-1.2-0.3-1.3-0.8c-0.6,0.5-1.4,0.8-2.2,0.8c-1.4,0-2.4-0.8-2.4-2.1c0-1.5,0.9-2.1,2.5-2.5
				c0.5-0.1,1.2-0.2,1.9-0.3v-0.3c0-0.6-0.3-0.9-0.8-0.9c-0.8,0-1.5,0.5-2.2,0.8L92.8,14.4z M96.6,17.4c-0.1,0-0.2,0-0.4,0.1
				c-0.7,0-1.5,0.4-1.5,1.2c0,0.5,0.5,0.8,0.9,0.8c0.5,0,1-0.3,1-0.5V17.4z"/>
			<path d="M100,13.4h1.1l0.1-2.5h2.5l-0.1,2.5h2.1l0,1.9h-2.1c0,1-0.1,2.1-0.1,2.8c0,0.6,0.2,1,0.7,1c0.4,0,0.7-0.2,1-0.4l0.6,1.7
				c-0.8,0.5-1.7,0.7-2.6,0.7c-2.1,0-2.2-1.3-2.2-3c0-0.9,0.1-1.8,0.1-2.8h-1.1L100,13.4z"/>
			<path d="M111.4,13.4h2.6l-0.1,7.4h-2.6V20c-0.6,0.6-1.5,1.1-2.4,1.1c-1.6,0-2.5-0.9-2.5-2.9c0-1.5,0-3.1,0-4.8h2.6
				c0,1.4,0,2.9,0,4.4c0,0.6,0.2,1.1,0.9,1.1c0.4,0,1-0.4,1.4-0.7L111.4,13.4z"/>
			<path d="M115.5,13.4h2.6v1h0c0.4-0.6,0.9-1.3,1.9-1.3c0.3,0,0.6,0,0.9,0.1l-0.3,2.5c-0.3-0.1-0.5-0.1-0.9-0.1
				c-0.9,0-1.5,0.7-1.5,0.9l0,4.3h-2.6L115.5,13.4z"/>
			<path d="M121.1,14.4c1.3-0.8,2.5-1.2,4-1.2c1.4,0,2.3,0.7,2.3,2.1v3.6c0,0.3,0.1,0.5,0.4,0.5c0.1,0,0.2,0,0.3-0.1l0.3,1.4
				c-0.3,0.3-1.6,0.5-2,0.5c-0.7,0-1.2-0.3-1.3-0.8c-0.6,0.5-1.4,0.8-2.2,0.8c-1.4,0-2.4-0.8-2.4-2.1c0-1.5,0.9-2.1,2.5-2.5
				c0.5-0.1,1.2-0.2,1.9-0.3v-0.3c0-0.6-0.3-0.9-0.8-0.9c-0.8,0-1.5,0.5-2.2,0.8L121.1,14.4z M125,17.4c-0.1,0-0.2,0-0.4,0.1
				c-0.7,0-1.5,0.4-1.5,1.2c0,0.5,0.5,0.8,0.9,0.8c0.5,0,1-0.3,1-0.5V17.4z"/>
			<path d="M129.2,9.8h2.6l-0.1,11h-2.6L129.2,9.8z"/>
			<path d="M146.8,20.4c-1.3,0.6-2.6,0.7-4,0.7c-3.5,0-5.6-2.2-5.6-5.5c0-3.2,2.2-5.3,5.9-5.3c1.4,0,2.6,0.3,3.2,0.7l-0.8,1.9
				c-0.6-0.3-1.5-0.5-2.2-0.5c-2,0-3.4,1.3-3.4,3.2c0,1.8,1.2,3.3,3.1,3.3c0.5,0,0.9-0.1,1-0.2l0.1-3.5h2.6L146.8,20.4z"/>
			<path d="M148.4,14.4c1.3-0.8,2.5-1.2,4-1.2c1.4,0,2.3,0.7,2.3,2.1v3.6c0,0.3,0.1,0.5,0.4,0.5c0.1,0,0.2,0,0.3-0.1l0.3,1.4
				c-0.3,0.3-1.6,0.5-2,0.5c-0.7,0-1.2-0.3-1.3-0.8c-0.6,0.5-1.4,0.8-2.2,0.8c-1.4,0-2.4-0.8-2.4-2.1c0-1.5,0.9-2.1,2.5-2.5
				c0.5-0.1,1.2-0.2,1.9-0.3v-0.3c0-0.6-0.3-0.9-0.8-0.9c-0.8,0-1.5,0.5-2.2,0.8L148.4,14.4z M152.3,17.4c-0.1,0-0.2,0-0.4,0.1
				c-0.7,0-1.5,0.4-1.5,1.2c0,0.5,0.5,0.8,0.9,0.8c0.5,0,1-0.3,1-0.5V17.4z"/>
			<path d="M156.6,18.9c0.5,0.2,1.5,0.4,2.1,0.4c0.4,0,0.9-0.2,0.9-0.6c0-0.3-0.1-0.4-1.5-0.8c-1.3-0.4-2-0.9-2-2.3
				c0-1.8,1.7-2.5,3.3-2.5c1.3,0,2.4,0.3,2.7,0.5l-0.5,1.6c-0.5-0.1-1.1-0.3-1.8-0.3c-0.4,0-1,0.2-1,0.6c0,0.3,0.1,0.5,1,0.7
				c1.5,0.3,2.5,0.8,2.5,2.4c0,1.9-1.7,2.5-3.5,2.5c-1.1,0-2.4-0.3-2.8-0.5L156.6,18.9z"/>
		</g>
	</g>
</g>
</svg>
