<?xml version="1.0" encoding="utf-8"?>
<!-- Generator: Adobe Illustrator 18.0.0, SVG Export Plug-In . SVG Version: 6.00 Build 0)  -->
<!DOCTYPE svg PUBLIC "-//W3C//DTD SVG 1.1//EN" "http://www.w3.org/Graphics/SVG/1.1/DTD/svg11.dtd">
<svg version="1.1" id="Layer_1" xmlns="http://www.w3.org/2000/svg" xmlns:xlink="http://www.w3.org/1999/xlink" x="0px" y="0px"
	 viewBox="0 0 792 216.5" enable-background="new 0 0 792 216.5" xml:space="preserve">
<g>
	<polygon fill="#FFFFFF" points="792,216.5 0,216.5 0,0 682.9,0 	"/>
	<g>
		<g>
			<g id="KB9hn1_4_">
				<g>
					<path fill="#4283C4" d="M21.7,124.7c0-0.8,0-1.6,0-2.4c0.4-2.4,1.2-4.8,2.8-6.8c8.8-15.2,17.6-30.9,26.5-46.1
						c3.2-5.6,6.4-11.2,9.6-16.8c0,0,0,0,0.4,0c0,0,0,0,0,0.4c7.6,13.6,15.6,26.9,23.3,40.5c4.4,7.6,8.8,15.2,13.2,22.9
						c2,3.6,2.8,7.2,1.6,10.8c-0.8,2.4-1.6,4.8-2.8,7.2c-3.2,6-6.4,12-9.6,18.4c-1.2,2-2.8,3.2-5.2,3.2c-2.8,0.4-6,0.4-8.8,0.4
						c-0.4,0-0.8-0.4-0.8-0.8c-2.4-4-4.8-8.4-7.6-12.4c-1.2-1.6-2-3.2-3.2-5.2c-0.4,0.4-0.4,0.8-0.8,0.8c-3.2,5.6-6.8,11.2-10,16.8
						c-0.4,0.4-0.8,0.8-1.2,0.8c-2.4,0-4.8,0-6.8,0c-2.4,0-4.8-0.8-6.4-2.8c-0.8-1.2-1.6-2.4-2.4-3.6c-2.8-5.2-5.2-10-8-15.2
						c-1.2-2-2-4.4-2.8-6.8C22.1,126.7,22.1,125.9,21.7,124.7z M60.6,137.1c2.8,0,5.6,0,8,0c2,0,4-0.8,4.8-2.4
						c1.2-2,2.4-4.4,3.2-6.4c1.6-2.8,1.2-5.6-0.4-8.4c-3.6-7.6-8-14.8-12-22.1c-1.2-2-2-3.6-3.2-5.6l-0.4,0.4
						c-5.2,9.2-10.8,18.4-16,27.7c-1.2,2-1.6,4-0.8,6c1.2,2.8,2.4,5.6,4,8.4c1.2,1.6,3.2,2.8,5.2,2.4c1.2,0,2.8,0,4,0
						C58.1,137.1,59.3,137.1,60.6,137.1c0-0.4-0.4-0.4-0.4-0.8c-1.6-2.8-3.6-6-5.2-8.8c-1.2-2-1.6-4.4-0.4-6.8c2-3.6,4-6.8,6.4-10.4
						c0.8,1.6,2,3.2,2.8,4.4c0.8,1.6,1.6,3.2,2.8,4.4c2,2.8,1.6,5.6,0,8.8C64.6,131.1,62.6,133.9,60.6,137.1z"/>
				</g>
			</g>
			<g>
				<path fill="#4283C4" d="M94.2,152.4c0,1.6-1.2,2.8-2.8,2.8c-1.6,0-3.2-1.2-3.2-2.8c0-1.6,1.2-2.8,3.2-2.8
					C93,149.6,94.2,150.8,94.2,152.4z M89,152.4c0,1.2,0.8,2.4,2.4,2.4c1.2,0,2.4-1.2,2.4-2.4S93,150,91.4,150
					C89.8,150.4,89,151.2,89,152.4z M90.6,154h-0.8v-2.8c0.4,0,0.8,0,1.2,0c0.4,0,0.8,0,1.2,0.4c0,0,0.4,0.4,0.4,0.8
					c0,0.4-0.4,0.4-0.8,0.8l0,0c0.4,0,0.4,0.4,0.4,0.8s0,0.8,0.4,0.8h-0.8c0,0,0-0.4-0.4-0.8c0-0.4-0.4-0.4-0.8-0.4h-0.4v0.4H90.6z
					 M90.6,152.4L90.6,152.4c0.8,0,0.8,0,0.8-0.4c0-0.4,0-0.4-0.8-0.4h-0.4v0.8H90.6z"/>
			</g>
		</g>
		<g>
			<g>
				<path d="M682.5,101.1c0,2.8-2,4.8-5.2,4.8c-2.8,0-5.2-2-5.2-4.8s2.4-4.8,5.2-4.8C680.1,96.2,682.5,98.6,682.5,101.1z
					 M673.7,101.1c0,2,1.6,4,4,4c2,0,3.6-1.6,3.6-4c0-2-1.6-4-3.6-4C675.3,97.4,673.7,99.1,673.7,101.1z M676.5,103.9h-1.2v-4.8
					c0.4,0,1.2,0,2,0s1.2,0,1.6,0.4c0.4,0.4,0.4,0.4,0.4,1.2c0,0.4-0.4,0.8-1.2,1.2l0,0c0.4,0,0.8,0.4,0.8,1.2s0.4,1.2,0.4,1.2h-1.2
					c0,0-0.4-0.8-0.4-1.2c0-0.4-0.4-0.8-1.2-0.8h-0.4v1.6H676.5z M676.5,101.1h0.4c0.8,0,1.2-0.4,1.2-0.8s-0.4-0.8-1.2-0.8
					c-0.4,0-0.4,0-0.8,0v1.6H676.5z"/>
			</g>
			<g>
				<path d="M150,133.9c-5.2,2.4-10.4,2.8-16,2.8c-14,0-22.5-8.8-22.5-22.1c0-12.8,8.8-21.3,23.7-21.3c5.6,0,10.4,1.2,12.8,2.8
					l-2.8,8c-2.4-1.2-6-2-8.8-2c-8,0-13.6,5.2-13.6,12.8c0,7.2,4.8,13.2,12.4,13.2c2,0,3.6-0.4,4-0.8l0.4-14H150L150,133.9z"/>
				<path d="M184.5,132.3c-3.6,2.8-8.8,4.4-13.6,4.4c-10.8,0-16-7.6-16-15.2c0-8.8,6.8-16.4,16.4-16.4c11.6,0,15.2,8,15.2,18h-20.9
					c0,2.4,1.6,6,7.2,6c3.6,0,5.6-1.2,8.4-2.8L184.5,132.3z M176.8,117.1c0-3.2-1.6-6-4.8-6s-6,2.8-6.4,6H176.8z"/>
				<path d="M205.7,104.7c11.2,0,16.8,6.8,16.8,16s-5.6,16-16.8,16c-11.2,0-16.8-6.8-16.8-16S194.5,104.7,205.7,104.7z M205.7,128.7
					c4.8,0,6.4-4.4,6.4-8c0-3.6-1.6-8-6.4-8c-4.8,0-6.4,4.4-6.4,8C199.3,124.3,200.9,128.7,205.7,128.7z"/>
				<path d="M227.4,105.9h10.4v4l0,0c1.6-2.4,3.6-5.2,7.6-5.2c1.2,0,2.4,0,3.6,0.4l-1.2,10c-1.2-0.4-2-0.4-3.6-0.4
					c-3.6,0-6,2.8-6,3.6v17.2h-10.4L227.4,105.9z"/>
				<path d="M280.3,112.7l-6-0.4c0.8,1.2,1.2,2.4,1.2,4c0,6-6.8,8.8-12.8,8.8c-2,0-4-0.4-4.4-0.4s-0.8,0.8-0.8,1.6
					c0,1.2,1.2,1.6,3.6,1.6c6.8,0.4,16.8,1.6,16.8,10.4s-9.2,12-16.8,12c-5.6,0-15.2-1.2-15.2-8.4c0-2.8,2.4-5.6,6.4-7.2l0,0
					c-4.4-0.8-6-2.4-6-4.8c0-3.6,4.8-6,7.6-6.8c-3.6-2-5.6-4-5.6-8c0-7.6,6.8-10.4,13.2-10.4c2.4,0,6,0.4,8,1.6l10-0.4v6.8H280.3z
					 M262.3,143.6c3.2,0,6.4-1.2,6.4-4c0-2-2-3.2-9.2-4c-2,1.2-3.2,2.4-3.2,4C255.8,142.8,259.1,143.6,262.3,143.6z M257.9,114.7
					c0,2.4,1.6,4.4,4.4,4.4c2.4,0,4.4-2,4.4-4.4c0-2.4-2-4.4-4.4-4.4C259.9,110.3,257.9,112.3,257.9,114.7z"/>
				<path d="M282.3,105.9h10.4l-0.4,29.7h-10.4L282.3,105.9z M282.3,92.6h10.4v8.4h-10.4V92.6z"/>
				<path d="M298.4,109.9c5.2-3.2,10-4.8,16-4.8c5.6,0,9.2,2.8,9.2,8.4v14.4c0,1.2,0.4,2,1.6,2c0.4,0,0.8,0,1.2-0.4l1.2,5.6
					c-1.2,1.2-6.4,2-8,2c-2.8,0-4.8-1.2-5.2-3.2c-2.4,2-5.6,3.2-8.8,3.2c-5.6,0-9.6-3.2-9.6-8.4c0-6,3.6-8.4,10-10
					c2-0.4,4.8-0.8,7.6-1.2v-1.2c0-2.4-1.2-3.6-3.2-3.6c-3.2,0-6,2-8.8,3.2L298.4,109.9z M314,121.9c-0.4,0-0.8,0-1.6,0.4
					c-2.8,0-6,1.6-6,4.8c0,2,2,3.2,3.6,3.2c2,0,4-1.2,4-2V121.9z"/>
				<path d="M349.3,94.6h13.2l14.4,26.9l0,0l0.4-26.9h9.6l-0.4,40.9h-12.4l-14.8-26.9l0,0l-0.4,26.9h-10L349.3,94.6z"/>
				<path d="M393.4,109.9c5.2-3.2,10-4.8,16-4.8c5.6,0,9.2,2.8,9.2,8.4v14.4c0,1.2,0.4,2,1.6,2c0.4,0,0.8,0,1.2-0.4l1.2,5.6
					c-1.2,1.2-6.4,2-8,2c-2.8,0-4.8-1.2-5.2-3.2c-2.4,2-5.6,3.2-8.8,3.2c-5.6,0-9.6-3.2-9.6-8.4c0-6,3.6-8.4,10-10
					c2-0.4,4.8-0.8,7.6-1.2v-1.2c0-2.4-1.2-3.6-3.2-3.6c-3.2,0-6,2-8.8,3.2L393.4,109.9z M408.6,121.9c-0.4,0-0.8,0-1.6,0.4
					c-2.8,0-6,1.6-6,4.8c0,2,2,3.2,3.6,3.2c2,0,4-1.2,4-2V121.9z"/>
				<path d="M422.3,105.9h4.4l0.4-10h10l-0.4,10h8.4v7.6h-8.4c0,4-0.4,8.4-0.4,11.2c0,2.4,0.8,4,2.8,4c1.6,0,2.8-0.8,4-1.6l2.4,6.8
					c-3.2,2-6.8,2.8-10.4,2.8c-8.4,0-8.8-5.2-8.8-12c0-3.6,0.4-7.2,0.4-11.2h-4.4V105.9z"/>
				<path d="M468,105.9h10.4l-0.4,29.7h-10.4v-3.2c-2.4,2.4-6,4.4-9.6,4.4c-6.4,0-10-3.6-10-11.6c0-6,0-12.4,0-19.2h10.4
					c0,5.6,0,11.6,0,17.6c0,2.4,0.8,4.4,3.6,4.4c1.6,0,4-1.6,5.6-2.8L468,105.9z"/>
				<path d="M484.4,105.9h10.4v4l0,0c1.6-2.4,3.6-5.2,7.6-5.2c1.2,0,2.4,0,3.6,0.4l-1.2,10c-1.2-0.4-2-0.4-3.6-0.4
					c-3.6,0-6,2.8-6,3.6v17.2h-10.4L484.4,105.9z"/>
				<path d="M506.9,109.9c5.2-3.2,10-4.8,16-4.8c5.6,0,9.2,2.8,9.2,8.4v14.4c0,1.2,0.4,2,1.6,2c0.4,0,0.8,0,1.2-0.4l1.2,5.6
					c-1.2,1.2-6.4,2-8,2c-2.8,0-4.8-1.2-5.2-3.2c-2.4,2-5.6,3.2-8.8,3.2c-5.6,0-9.6-3.2-9.6-8.4c0-6,3.6-8.4,10-10
					c2-0.4,4.8-0.8,7.6-1.2v-1.2c0-2.4-1.2-3.6-3.2-3.6c-3.2,0-6,2-8.8,3.2L506.9,109.9z M522.5,121.9c-0.4,0-0.8,0-1.6,0.4
					c-2.8,0-6,1.6-6,4.8c0,2,2,3.2,3.6,3.2c2,0,4-1.2,4-2V121.9z"/>
				<path d="M539.4,91.4h10.4l-0.4,44.1H539L539.4,91.4z"/>
				<path d="M609.9,133.9c-5.2,2.4-10.4,2.8-16,2.8c-14,0-22.5-8.8-22.5-22.1c0-12.8,8.8-21.3,23.7-21.3c5.6,0,10.4,1.2,12.8,2.8
					l-3.2,7.6c-2.4-1.2-6-2-8.8-2c-8,0-13.6,5.2-13.6,12.8c0,7.2,4.8,13.2,12.4,13.2c2,0,3.6-0.4,4-0.8l0.4-14h10.4L609.9,133.9z"/>
				<path d="M616.4,109.9c5.2-3.2,10-4.8,16-4.8c5.6,0,9.2,2.8,9.2,8.4v14.4c0,1.2,0.4,2,1.6,2c0.4,0,0.8,0,1.2-0.4l1.2,5.6
					c-1.2,1.2-6.4,2-8,2c-2.8,0-4.8-1.2-5.2-3.2c-2.4,2-5.6,3.2-8.8,3.2c-5.6,0-9.6-3.2-9.6-8.4c0-6,3.6-8.4,10-10
					c2-0.4,4.8-0.8,7.6-1.2v-1.2c0-2.4-1.2-3.6-3.2-3.6c-3.2,0-6,2-8.8,3.2L616.4,109.9z M632,121.9c-0.4,0-0.8,0-1.6,0.4
					c-2.8,0-6,1.6-6,4.8c0,2,2,3.2,3.6,3.2c2,0,4-1.2,4-2V121.9z"/>
				<path d="M649.2,127.9c2,0.8,6,1.6,8.4,1.6c1.6,0,3.6-0.8,3.6-2.4c0-1.2-0.4-1.6-6-3.2c-5.2-1.6-8-3.6-8-9.2
					c0-7.2,6.8-10,13.2-10c5.2,0,9.6,1.2,10.8,2l-2,6.4c-2-0.4-4.4-1.2-7.2-1.2c-1.6,0-4,0.8-4,2.4c0,1.2,0.4,2,4,2.8
					c6,1.2,10,3.2,10,9.6c0,7.6-6.8,10-14,10c-4.4,0-9.6-1.2-11.2-2L649.2,127.9z"/>
			</g>
		</g>
	</g>
</g>
</svg>
