<svg xmlns="http://www.w3.org/2000/svg" viewBox="0 0 197.5 54"><path fill="#FFF" d="M198 54H0V0h170.7"/><path fill="#4283C4" d="M5.4 31.1v-.6c.1-.6.3-1.2.7-1.7 2.2-3.8 4.4-7.7 6.6-11.5l2.4-4.2h.1v.1c1.9 3.4 3.9 6.7 5.8 10.1l3.3 5.7c.5.9.7 1.8.4 2.7-.2.6-.4 1.2-.7 1.8-.8 1.5-1.6 3-2.4 4.6-.3.5-.7.8-1.3.8-.7.1-1.5.1-2.2.1-.1 0-.2-.1-.2-.2-.6-1-1.2-2.1-1.9-3.1-.3-.4-.5-.8-.8-1.3-.1.1-.1.2-.2.2-.8 1.4-1.7 2.8-2.5 4.2-.1.1-.2.2-.3.2h-1.7c-.6 0-1.2-.2-1.6-.7l-.6-.9c-.7-1.3-1.3-2.5-2-3.8-.3-.5-.5-1.1-.7-1.7-.1-.3-.1-.5-.2-.8zm9.7 3.1h2c.5 0 1-.2 1.2-.6.3-.5.6-1.1.8-1.6.4-.7.3-1.4-.1-2.1-.9-1.9-2-3.7-3-5.5-.3-.5-.5-.9-.8-1.4l-.1.1c-1.3 2.3-2.7 4.6-4 6.9-.3.5-.4 1-.2 1.5.3.7.6 1.4 1 2.1.3.4.8.7 1.3.6h1.9c0-.1-.1-.1-.1-.2-.4-.7-.9-1.5-1.3-2.2-.3-.5-.4-1.1-.1-1.7.5-.9 1-1.7 1.6-2.6.2.4.5.8.7 1.1.2.4.4.8.7 1.1.5.7.4 1.4 0 2.2-.5.8-1 1.5-1.5 2.3zM23.5 38c0 .4-.3.7-.7.7-.4 0-.8-.3-.8-.7 0-.4.3-.7.8-.7.4 0 .7.3.7.7zm-1.3 0c0 .3.2.6.6.6.3 0 .6-.3.6-.6s-.2-.6-.6-.6c-.4.1-.6.3-.6.6zm.4.4h-.2v-.7h.3c.1 0 .2 0 .3.1 0 0 .1.1.1.2s-.1.1-.2.2c.1 0 .1.1.1.2s0 .2.1.2h-.2s0-.1-.1-.2c0-.1-.1-.1-.2-.1h-.1v.1zm0-.4c.2 0 .2 0 .2-.1s0-.1-.2-.1h-.1v.2z"/><g><path d="M170.2 25.2c0 .7-.5 1.2-1.3 1.2-.7 0-1.3-.5-1.3-1.2s.6-1.2 1.3-1.2c.7 0 1.3.6 1.3 1.2zm-2.2 0c0 .5.4 1 1 1 .5 0 .9-.4.9-1 0-.5-.4-1-.9-1-.6.1-1 .5-1 1zm.7.7h-.3v-1.2h.5c.2 0 .3 0 .4.1.1.1.1.1.1.3 0 .1-.1.2-.3.3.1 0 .2.1.2.3 0 .2.1.3.1.3h-.3s-.1-.2-.1-.3c0-.1-.1-.2-.3-.2h-.1v.4zm0-.7h.1c.2 0 .3-.1.3-.2s-.1-.2-.3-.2h-.2v.4zM37.4 33.4c-1.3.6-2.6.7-4 .7-3.5 0-5.6-2.2-5.6-5.5 0-3.2 2.2-5.3 5.9-5.3 1.4 0 2.6.3 3.2.7l-.7 2c-.6-.3-1.5-.5-2.2-.5-2 0-3.4 1.3-3.4 3.2 0 1.8 1.2 3.3 3.1 3.3.5 0 .9-.1 1-.2l.1-3.5h2.6v5.1zM46 33c-.9.7-2.2 1.1-3.4 1.1-2.7 0-4-1.9-4-3.8 0-2.2 1.7-4.1 4.1-4.1 2.9 0 3.8 2 3.8 4.5h-5.2c0 .6.4 1.5 1.8 1.5.9 0 1.4-.3 2.1-.7L46 33zm-1.9-3.8c0-.8-.4-1.5-1.2-1.5-.8 0-1.5.7-1.6 1.5h2.8zM51.3 26.1c2.8 0 4.2 1.7 4.2 4s-1.4 4-4.2 4-4.2-1.7-4.2-4 1.4-4 4.2-4zm0 6c1.2 0 1.6-1.1 1.6-2s-.4-2-1.6-2-1.6 1.1-1.6 2 .4 2 1.6 2zM56.7 26.4h2.6v1c.4-.6.9-1.3 1.9-1.3.3 0 .6 0 .9.1l-.3 2.5c-.3-.1-.5-.1-.9-.1-.9 0-1.5.7-1.5.9v4.3h-2.6l-.1-7.4z"/><path d="M69.9 28.1l-1.5-.1c.2.3.3.6.3 1 0 1.5-1.7 2.2-3.2 2.2-.5 0-1-.1-1.1-.1s-.2.2-.2.4c0 .3.3.4.9.4 1.7.1 4.2.4 4.2 2.6s-2.3 3-4.2 3c-1.4 0-3.8-.3-3.8-2.1 0-.7.6-1.4 1.6-1.8-1.1-.2-1.5-.6-1.5-1.2 0-.9 1.2-1.5 1.9-1.7-.9-.5-1.4-1-1.4-2 0-1.9 1.7-2.6 3.3-2.6.6 0 1.5.1 2 .4l2.5-.1v1.7zm-4.5 7.7c.8 0 1.6-.3 1.6-1 0-.5-.5-.8-2.3-1-.5.3-.8.6-.8 1-.1.8.7 1 1.5 1zm-1.1-7.2c0 .6.4 1.1 1.1 1.1.6 0 1.1-.5 1.1-1.1 0-.6-.5-1.1-1.1-1.1-.6 0-1.1.5-1.1 1.1zM70.4 26.4H73l-.1 7.4h-2.6l.1-7.4zm0-3.3H73v2.1h-2.6v-2.1zM74.4 27.4c1.3-.8 2.5-1.2 4-1.2 1.4 0 2.3.7 2.3 2.1v3.6c0 .3.1.5.4.5.1 0 .2 0 .3-.1l.3 1.4c-.3.3-1.6.5-2 .5-.7 0-1.2-.3-1.3-.8-.6.5-1.4.8-2.2.8-1.4 0-2.4-.8-2.4-2.1 0-1.5.9-2.1 2.5-2.5.5-.1 1.2-.2 1.9-.3V29c0-.6-.3-.9-.8-.9-.8 0-1.5.5-2.2.8l-.8-1.5zm3.9 3c-.1 0-.2 0-.4.1-.7 0-1.5.4-1.5 1.2 0 .5.5.8.9.8.5 0 1-.3 1-.5v-1.6zM87.1 23.6h3.3l3.6 6.7.1-6.7h2.4l-.1 10.2h-3.1l-3.7-6.7-.1 6.7H87l.1-10.2zM98.1 27.4c1.3-.8 2.5-1.2 4-1.2 1.4 0 2.3.7 2.3 2.1v3.6c0 .3.1.5.4.5.1 0 .2 0 .3-.1l.3 1.4c-.3.3-1.6.5-2 .5-.7 0-1.2-.3-1.3-.8-.6.5-1.4.8-2.2.8-1.4 0-2.4-.8-2.4-2.1 0-1.5.9-2.1 2.5-2.5.5-.1 1.2-.2 1.9-.3V29c0-.6-.3-.9-.8-.9-.8 0-1.5.5-2.2.8l-.8-1.5zm3.8 3c-.1 0-.2 0-.4.1-.7 0-1.5.4-1.5 1.2 0 .5.5.8.9.8.5 0 1-.3 1-.5v-1.6zM105.3 26.4h1.1l.1-2.5h2.5l-.1 2.5h2.1v1.9h-2.1c0 1-.1 2.1-.1 2.8 0 .6.2 1 .7 1 .4 0 .7-.2 1-.4l.6 1.7c-.8.5-1.7.7-2.6.7-2.1 0-2.2-1.3-2.2-3 0-.9.1-1.8.1-2.8h-1.1v-1.9zM116.7 26.4h2.6l-.1 7.4h-2.6V33c-.6.6-1.5 1.1-2.4 1.1-1.6 0-2.5-.9-2.5-2.9v-4.8h2.6v4.4c0 .6.2 1.1.9 1.1.4 0 1-.4 1.4-.7l.1-4.8zM120.8 26.4h2.6v1c.4-.6.9-1.3 1.9-1.3.3 0 .6 0 .9.1l-.3 2.5c-.3-.1-.5-.1-.9-.1-.9 0-1.5.7-1.5.9v4.3h-2.6l-.1-7.4zM126.4 27.4c1.3-.8 2.5-1.2 4-1.2 1.4 0 2.3.7 2.3 2.1v3.6c0 .3.1.5.4.5.1 0 .2 0 .3-.1l.3 1.4c-.3.3-1.6.5-2 .5-.7 0-1.2-.3-1.3-.8-.6.5-1.4.8-2.2.8-1.4 0-2.4-.8-2.4-2.1 0-1.5.9-2.1 2.5-2.5.5-.1 1.2-.2 1.9-.3V29c0-.6-.3-.9-.8-.9-.8 0-1.5.5-2.2.8l-.8-1.5zm3.9 3c-.1 0-.2 0-.4.1-.7 0-1.5.4-1.5 1.2 0 .5.5.8.9.8.5 0 1-.3 1-.5v-1.6zM134.5 22.8h2.6l-.1 11h-2.6l.1-11zM152.1 33.4c-1.3.6-2.6.7-4 .7-3.5 0-5.6-2.2-5.6-5.5 0-3.2 2.2-5.3 5.9-5.3 1.4 0 2.6.3 3.2.7l-.8 1.9c-.6-.3-1.5-.5-2.2-.5-2 0-3.4 1.3-3.4 3.2 0 1.8 1.2 3.3 3.1 3.3.5 0 .9-.1 1-.2l.1-3.5h2.6l.1 5.2zM153.7 27.4c1.3-.8 2.5-1.2 4-1.2 1.4 0 2.3.7 2.3 2.1v3.6c0 .3.1.5.4.5.1 0 .2 0 .3-.1l.3 1.4c-.3.3-1.6.5-2 .5-.7 0-1.2-.3-1.3-.8-.6.5-1.4.8-2.2.8-1.4 0-2.4-.8-2.4-2.1 0-1.5.9-2.1 2.5-2.5.5-.1 1.2-.2 1.9-.3V29c0-.6-.3-.9-.8-.9-.8 0-1.5.5-2.2.8l-.8-1.5zm3.9 3c-.1 0-.2 0-.4.1-.7 0-1.5.4-1.5 1.2 0 .5.5.8.9.8.5 0 1-.3 1-.5v-1.6zM161.9 31.9c.5.2 1.5.4 2.1.4.4 0 .9-.2.9-.6 0-.3-.1-.4-1.5-.8-1.3-.4-2-.9-2-2.3 0-1.8 1.7-2.5 3.3-2.5 1.3 0 2.4.3 2.7.5l-.5 1.6c-.5-.1-1.1-.3-1.8-.3-.4 0-1 .2-1 .6 0 .3.1.5 1 .7 1.5.3 2.5.8 2.5 2.4 0 1.9-1.7 2.5-3.5 2.5-1.1 0-2.4-.3-2.8-.5l.6-1.7z"/></g></svg>