<svg xmlns="http://www.w3.org/2000/svg" xmlns:xlink="http://www.w3.org/1999/xlink" viewBox="0 0 81.8 113"><g fill="none" stroke="#FFF" stroke-width="1.2" stroke-miterlimit="10"><path stroke-linecap="round" stroke-linejoin="round" d="M7.8 19.5s-5.4-.7-5.4 2.8 5.3 7.3 5.3 7.3v3.3S1 30.7.1 35.5s7.6 6.7 7.6 6.7S0 42 1 47.9c.8 3.3 4.4 2.1 6.7.2v1.8s-3.7 0-5.1 1.2-1.6 4.8.9 6.3c2.2 1.9 4.6 3.9 4.6 3.9s.1 2.6 3 2.3c0 0 1.7 2.3 4.2 4.2 2.5 2 2.3 4.3 4.2 6.1 6.9 6.2 10.3 18.7 20.5 17.4 0 0 16.4 17 17.5 20.5"/><path d="M45.9 22.9s-7.6-1.9-3.2-5.2M5.8 51.6s-1 1.5-.3 4.1c-3.9-1-1.1-4.1.3-4.1zM1.1 48.2s0-3.3 2.4-4.2v-1M45.7 40.3s-9.6 11.9-9.3 20.5c.4 6.2 2.4 7.6 2.4 7.6M42.3 31.5c-.2 2 .7 6.2 2.4 10"/><path d="M42.2 33.4s-1.8-1.6-2.5-2.8c-2.7-4.7-3.3-9.4-.5-12.4 1.5-1.6 2.8-.8 3.7-.5.4.2 1.4 2.8 2.6 4.5 1.3 1.9 3.5 4.2 4.2 4.9.2.2.3.4.4.6.3.8 1 2.9 1.2 3.8.2 1.1 5.5 10.2 5.5 10.2s3 2.7 3.4 15.2c.3 9.6 1.9 11.5 3.7 13.4 3.6 3.6 18 23.2 18 23.2M44.1 40.4l-4.4-3.6M36.6 63.9s-15 .1-13.6 9.9M24.8 64.5s-5.5 4-5.1 9.5M15.4 67.9s-.1-3.8 1-4.2"/></g><path fill="none" stroke="#FFF" stroke-width="1.2" stroke-miterlimit="10" d="M6.3 55.9s2.7.6 3.3-1.6c.5-1.7-.4-3.9-2.1-4.4"/><defs><path id="a" d="M36.8 64.3H10.6c-1.7 0-3.1-1.4-3.1-3.1V56s2.3-.3 2.3-2.7c0-2.9-2.3-3.5-2.3-3.5V3.1C7.6 1.4 8.9 0 10.6 0H37c1.7 0 3.1 1.4 3.1 3.1v14.3s-2.6 1.8-2.6 5.6c0 4.5 2.6 8 2.6 8v18.1c0 .1-4.6 6.7-3.3 15.2z"/></defs><clipPath id="b"><use xlink:href="#a" overflow="visible"/></clipPath><path clip-path="url(#b)" fill="none" stroke="#FFF" stroke-width="1.2" stroke-miterlimit="10" d="M37 63.7H10.7c-1.5 0-2.8-1.3-2.8-2.8V3.4C7.9 1.9 9.2.6 10.7.6H37c1.5 0 2.8 1.3 2.8 2.8v57.5c0 1.6-1.3 2.8-2.8 2.8z"/><path clip-path="url(#b)" fill="none" stroke="#FFF" stroke-width="1.2" stroke-miterlimit="10" d="M34.7 52.8H13.4c-.8 0-1.4-.6-1.4-1.4v-44c0-.8.6-1.4 1.4-1.4h21.2c.8 0 1.4.6 1.4 1.4v44c.1.7-.6 1.4-1.3 1.4z"/><circle clip-path="url(#b)" fill="none" stroke="#FFF" stroke-width="1.2" stroke-miterlimit="10" cx="24" cy="60" r="2"/><path fill="#FFF" d="M31.3 4.1h-15c-.2 0-.4-.2-.4-.4s.2-.4.4-.4h15c.2 0 .4.2.4.4s-.2.4-.4.4z"/></svg>