<svg xmlns="http://www.w3.org/2000/svg" viewBox="0 0 532.1 908.6"><path fill="#FFF" d="M437.7 385.8c1.9-29.3 2-120.1 6.7-195.8 2.2-35.3 25.9-84.8 56.2-39.3 10.3 15.4 7.9 63.2 11.4 91.2 3.7 30.4 7.8 169.9 16.7 230.8l3.4 47.8c.3 41.8-5.1 105.6-5.1 105.6-9.1 69.3-35.1 142.5-70 202.3-15.7 34.6-12.5 80.2-12.5 80.2h-287l1.6-28.3c7.1-52.4 19.6-93.8-2.1-144.2l-9.4-16.7c-20.7-18.3-47.9-31.6-68.7-47.7-36.5-28.1-40.7-68.7-41.3-114.5-.5-43.6-9.8-89.7-17.5-135.1C16.2 399.4.3 375.2 0 353.6c-.3-29.5 22.4-26.8 45.7-14.5 31 16.5 50.1 50.6 63.5 81.8 6.6 15.2 10.3 51 17.8 75.8 0 0 6.8-317.5 7.3-352.7.6-40.5 45.6-97.1 80.4-45 11.8 17.6 5.7 62.6 9.7 94.6 4.3 34.8 0 111 0 186.7 5.6-46 9.2-272.7 10.1-316.8.8-39.2 46.9-93.8 82.1-43.1 11.9 17.2 9 70.2 12.8 101.3 4.2 33.7 6.3 170.8 6.3 263.9V378c0-100.5 4.9-224.7 5.6-270.3.6-40.5 47.1-98 80.4-45 26.6 42.5 16 323.1 16 323.1z"/></svg>