<?xml version="1.0" encoding="utf-8"?>
<!-- Generator: Adobe Illustrator 18.0.0, SVG Export Plug-In . SVG Version: 6.00 Build 0)  -->
<!DOCTYPE svg PUBLIC "-//W3C//DTD SVG 1.1//EN" "http://www.w3.org/Graphics/SVG/1.1/DTD/svg11.dtd">
<svg version="1.1" id="Layer_1" xmlns="http://www.w3.org/2000/svg" xmlns:xlink="http://www.w3.org/1999/xlink" x="0px" y="0px"
	 viewBox="0 0 154 154" enable-background="new 0 0 154 154" xml:space="preserve">
<g>
	<path d="M78.5,0c12.3,0.2,24,2.8,34.9,8.8c2.3,1.3,4.6,2.7,6.7,4.4c8.6,7.1,8.4,14.8-1.3,20.4c-9,5.2-16.4,12.2-23,20.2
		c-1.7,2.1-2.9,2.4-5.4,1.2c-12.1-6.1-23.2-4-32.8,5.6c-2.3,2.3-3.3,2-5.2-0.2c-6.1-6.9-11.9-13.9-15.1-22.9
		c-4-11.4-1.5-20.1,8-27.1C55.2,3.2,66.4-0.1,78.5,0z"/>
	<path d="M97.5,137.1c0.2-9.3-2.2-18.1-5.1-26.7c-0.9-2.6-0.5-3.9,1.7-5.4c11.3-7.8,15.1-18.8,12.1-32.3c-0.6-2.8-0.6-3.8,2.4-4.5
		c9.3-2.2,18.5-4.1,28.1-1.9c10.6,2.5,15.9,8.7,17.1,19.8c1.4,13-1.7,25-8.1,36.1c-7,12.1-16.1,21.9-28.1,28.7
		c-0.7,0.4-1.4,0.8-2.2,1.2c-11.2,5.3-17.9,0.9-17.9-11.8C97.5,139.2,97.5,138.1,97.5,137.1z"/>
	<path d="M0,87c0-0.9,0.1-1.7,0.1-2.6c1.1-10.6,6.7-14.3,16.2-10c7.2,3.3,14.5,6.6,22.3,6.8c7.9,0.2,11.4,3,13.4,11.3
		c2.5,10.6,11,16.1,21.1,18c3.9,0.7,3.9,2.3,3.3,5.4c-1.5,7.2-3.2,14.4-6.5,21.1c-7.4,14.5-18.1,18.6-32.2,11.5
		C12.8,136.2,2.9,113.9,0,87z"/>
	<path d="M99.6,81.9c-0.1,12.4-10.2,22.7-22,22.6C65.6,104.3,55.7,94,55.7,81.7c0-12.7,10-22.8,22.4-22.6
		C90.1,59.2,99.7,69.3,99.6,81.9z"/>
</g>
</svg>
