<?xml version="1.0" encoding="utf-8"?>
<!-- Generator: Adobe Illustrator 18.0.0, SVG Export Plug-In . SVG Version: 6.00 Build 0)  -->
<!DOCTYPE svg PUBLIC "-//W3C//DTD SVG 1.1//EN" "http://www.w3.org/Graphics/SVG/1.1/DTD/svg11.dtd">
<svg version="1.1" id="Layer_1" xmlns="http://www.w3.org/2000/svg" xmlns:xlink="http://www.w3.org/1999/xlink" x="0px" y="0px"
	 viewBox="0 0 204.1 255.2" enable-background="new 0 0 204.1 255.2" xml:space="preserve">
<path d="M125.8,2.1c-8-1.9-23.3-2.8-37-1.3C71,2.7,42.2,15.4,25.6,33.8c-31.9,35.3-34.3,90.6-5.5,128.5
	c15.4,20.3,35.5,33.3,60.3,38.9c1.9,0.4,4.1,0.3,4,3.3c-0.1,8.2-0.1,16.3,0,24.5c0,2.3-1.2,2.3-2.8,2.3c-1.5,0-2.7,0.2-2.9-2.1
	c-0.7-6.9-0.8-6.9-7.7-6.9c-1.5,0-3,0.2-4.5,0c-4.2-0.5-6.5,0.8-5.7,5.4c0.6,3.4-1.2,3.8-4,3.7c-4.2-0.2-8.3-0.1-12.5,0
	c-8.1,0-9.8,1.8-9.9,10.1c-0.1,4.6,0.6,9.3-0.5,13.9c45,0,90,0,135,0c0.1-5.3,0.2-10.7,0.1-16c0-5.6-2.2-7.9-7.8-8
	c-5-0.1-10-0.1-15,0c-1.9,0-3.4-0.2-3-2.6c1.1-6.1-2.2-7.1-7.1-6.4c-1.6,0.2-3.4,0.2-5,0c-4.7-0.7-6.5,1.3-5.9,5.9
	c0.3,2.2-0.2,3.3-2.9,3.2c-2.7,0-3.4-0.8-3.3-3.4c0.2-6.8,0.4-13.7-0.1-20.5c-0.3-4.2,1.2-5.5,5.2-6.4c43.7-9.6,76.5-47.4,79.6-91.3
	C207.4,58.9,175.4,14.1,125.8,2.1z M101.7,191.2c-49.3-0.1-89.6-40.4-89.6-89.7c0-49.4,40.6-90,89.9-90
	c49.5,0.1,89.9,40.6,89.8,90.1C191.8,151.2,151.4,191.3,101.7,191.2z"/>
</svg>
