<?xml version="1.0" encoding="utf-8"?>
<!-- Generator: Adobe Illustrator 18.0.0, SVG Export Plug-In . SVG Version: 6.00 Build 0)  -->
<!DOCTYPE svg PUBLIC "-//W3C//DTD SVG 1.1//EN" "http://www.w3.org/Graphics/SVG/1.1/DTD/svg11.dtd">
<svg version="1.1" id="Layer_1" xmlns="http://www.w3.org/2000/svg" xmlns:xlink="http://www.w3.org/1999/xlink" x="0px" y="0px"
	 viewBox="0 0 456 612" enable-background="new 0 0 456 612" xml:space="preserve">
<g id="Layer_1_1_">
</g>
<g id="Layer_2">
	<g>
		<g>
			
				<path fill="none" stroke="#FFFFFF" stroke-width="11" stroke-linecap="round" stroke-linejoin="round" stroke-miterlimit="10" d="
				M50.5,106.1c0,0-29.4-3.9-29.4,15.5s28.8,39.7,28.8,39.7v18.1c0,0-36.5-11.8-41.5,14s41.5,36.5,41.5,36.5S8,229.3,13.4,261
				c4.4,18.1,24.1,11.3,36.5,1.3v9.7c0,0-20-0.2-27.6,6.4c-7.6,6.6-8.9,26.7,5,34.8c12,10.4,25.1,21.3,25.1,21.3s0.7,14.1,16.6,12.7
				c0,0,9.3,12.4,23.2,23.2c13.9,10.8,12.4,23.5,23.2,33.2c37.8,34,56.3,102,111.7,95.2c0,0,89.6,92.9,95.4,111.8"/>
			<path fill="none" stroke="#FFFFFF" stroke-width="11" stroke-miterlimit="10" d="M258.5,125c0,0-41.5-10.4-17.5-28.5"/>
			<path fill="none" stroke="#FFFFFF" stroke-width="11" stroke-miterlimit="10" d="M45.3,275.9c0,0-5.3,8.2-1.6,22.4
				C22,292.9,37.2,275.9,45.3,275.9z"/>
			<path fill="none" stroke="#FFFFFF" stroke-width="11" stroke-miterlimit="10" d="M13.9,263c0,0,0.2-17.9,13.3-22.7l0.2-5.5"/>
			<path fill="none" stroke="#FFFFFF" stroke-width="11" stroke-miterlimit="10" d="M257.5,219.7c0,0-52.6,64.9-50.5,112
				c2.3,34,13.1,41.3,13.1,41.3"/>
			<path fill="none" stroke="#FFFFFF" stroke-width="11" stroke-miterlimit="10" d="M238.8,171.6c-1.4,10.9,3.9,33.7,12.9,54.8"/>
			<path fill="none" stroke="#FFFFFF" stroke-width="11" stroke-miterlimit="10" d="M238.4,182.1c0,0-9.9-8.9-13.7-15.5
				c-14.7-25.5-17.9-51.3-2.7-67.5c8-8.6,15.4-4.6,20-2.6c1.9,0.8,7.8,15.2,14,24.4c7.1,10.6,18.9,22.7,22.9,26.8
				c0.9,1,1.7,2.1,2.1,3.4c1.7,4.6,5.7,15.8,6.5,20.7c1.1,6.2,29.9,55.6,29.9,55.6s16.6,14.7,18.5,82.8
				c1.5,52.4,10.3,62.8,20.4,72.9c19.5,19.5,98.1,126.5,98.1,126.5"/>
			<line fill="none" stroke="#FFFFFF" stroke-width="11" stroke-miterlimit="10" x1="248.8" y1="220.2" x2="224.7" y2="200.8"/>
			<path fill="none" stroke="#FFFFFF" stroke-width="11" stroke-miterlimit="10" d="M208,348.5c0,0-81.9,0.6-74.3,54"/>
			<path fill="none" stroke="#FFFFFF" stroke-width="11" stroke-miterlimit="10" d="M143.2,351.7c0,0-29.7,21.7-27.8,51.8"/>
			<path fill="none" stroke="#FFFFFF" stroke-width="11" stroke-miterlimit="10" d="M92.2,370.3c0,0-0.8-20.9,5.4-22.8"/>
		</g>
		<g>
			<path fill="none" stroke="#FFFFFF" stroke-width="11" stroke-miterlimit="10" d="M42.6,305.1c0,0,14.7,3.4,18.2-8.7
				c2.6-9.1-2.1-21.5-11.6-24.1"/>
			<g>
				<g>
					<g>
						<defs>
							<path id="SVGID_1_" d="M208.6,350.9H66c-9.2,0-16.8-7.5-16.8-16.8v-28.6c0,0,12.8-1.8,12.8-14.5c0-15.9-12.8-18.9-12.8-18.9
								V16.8C49.2,7.5,56.8,0,66,0h144.1c9.2,0,16.8,7.5,16.8,16.8v78.3c0,0-14.4,9.9-14.4,30.7c0,24.8,14.4,43.5,14.4,43.5v98.9
								C226.9,268.2,202,304.3,208.6,350.9z"/>
						</defs>
						<clipPath id="SVGID_2_">
							<use xlink:href="#SVGID_1_"  overflow="visible"/>
						</clipPath>
						<path clip-path="url(#SVGID_2_)" fill="none" stroke="#FFFFFF" stroke-width="11" stroke-miterlimit="10" d="M208.4,347.6
							H67.8c-9.2,0-16.8-7.5-16.8-16.8V20.2c0-9.2,7.5-16.8,16.8-16.8h140.6c9.2,0,16.8,7.5,16.8,16.8v310.6
							C225.2,340,217.6,347.6,208.4,347.6z"/>
					</g>
					<g>
						<defs>
							<path id="SVGID_3_" d="M208.6,350.9H66c-9.2,0-16.8-7.5-16.8-16.8v-28.6c0,0,12.8-1.8,12.8-14.5c0-15.9-12.8-18.9-12.8-18.9
								V16.8C49.2,7.5,56.8,0,66,0h144.1c9.2,0,16.8,7.5,16.8,16.8v78.3c0,0-14.4,9.9-14.4,30.7c0,24.8,14.4,43.5,14.4,43.5v98.9
								C226.9,268.2,202,304.3,208.6,350.9z"/>
						</defs>
						<clipPath id="SVGID_4_">
							<use xlink:href="#SVGID_3_"  overflow="visible"/>
						</clipPath>
						<path clip-path="url(#SVGID_4_)" fill="none" stroke="#FFFFFF" stroke-width="11" stroke-miterlimit="10" d="M205.5,309.3
							H70.7c-5.1,0-9.3-4.2-9.3-9.3V33.2c0-5.1,4.2-9.3,9.3-9.3h134.8c5.1,0,9.3,4.2,9.3,9.3V300
							C214.8,305.1,210.6,309.3,205.5,309.3z"/>
					</g>
					<g>
						<defs>
							<path id="SVGID_5_" d="M208.6,350.9H66c-9.2,0-16.8-7.5-16.8-16.8v-28.6c0,0,12.8-1.8,12.8-14.5c0-15.9-12.8-18.9-12.8-18.9
								V16.8C49.2,7.5,56.8,0,66,0h144.1c9.2,0,16.8,7.5,16.8,16.8v78.3c0,0-14.4,9.9-14.4,30.7c0,24.8,14.4,43.5,14.4,43.5v98.9
								C226.9,268.2,202,304.3,208.6,350.9z"/>
						</defs>
						<clipPath id="SVGID_6_">
							<use xlink:href="#SVGID_5_"  overflow="visible"/>
						</clipPath>
						
							<circle clip-path="url(#SVGID_6_)" fill="none" stroke="#FFFFFF" stroke-width="11" stroke-miterlimit="10" cx="139.1" cy="327.1" r="10.8"/>
					</g>
				</g>
				<path fill="#FFFFFF" d="M178.9,16.7H97.2c-1.1,0-1.9-0.9-1.9-1.9l0,0c0-1.1,0.9-1.9,1.9-1.9h81.6c1.1,0,1.9,0.9,1.9,1.9l0,0
					C180.8,15.8,180,16.7,178.9,16.7z"/>
			</g>
		</g>
	</g>
</g>
</svg>
