<?xml version="1.0" encoding="utf-8"?>
<!-- Generator: Adobe Illustrator 18.0.0, SVG Export Plug-In . SVG Version: 6.00 Build 0)  -->
<!DOCTYPE svg PUBLIC "-//W3C//DTD SVG 1.1//EN" "http://www.w3.org/Graphics/SVG/1.1/DTD/svg11.dtd">
<svg version="1.1" id="Layer_1" xmlns="http://www.w3.org/2000/svg" xmlns:xlink="http://www.w3.org/1999/xlink" x="0px" y="0px"
	 viewBox="0 0 197.5 54" enable-background="new 0 0 197.5 54" xml:space="preserve">
<polygon fill="#FFFFFF" points="198,54 0,54 0,0 170.7,0 "/>
<g>
	<g>
		<g id="KB9hn1_4_">
			<g>
				<path fill="#4283C4" d="M5.4,31.1c0-0.2,0-0.4,0-0.6c0.1-0.6,0.3-1.2,0.7-1.7c2.2-3.8,4.4-7.7,6.6-11.5c0.8-1.4,1.6-2.8,2.4-4.2
					c0,0,0,0,0.1,0c0,0,0,0,0,0.1c1.9,3.4,3.9,6.7,5.8,10.1c1.1,1.9,2.2,3.8,3.3,5.7c0.5,0.9,0.7,1.8,0.4,2.7
					c-0.2,0.6-0.4,1.2-0.7,1.8c-0.8,1.5-1.6,3-2.4,4.6c-0.3,0.5-0.7,0.8-1.3,0.8c-0.7,0.1-1.5,0.1-2.2,0.1c-0.1,0-0.2-0.1-0.2-0.2
					c-0.6-1-1.2-2.1-1.9-3.1c-0.3-0.4-0.5-0.8-0.8-1.3c-0.1,0.1-0.1,0.2-0.2,0.2c-0.8,1.4-1.7,2.8-2.5,4.2c-0.1,0.1-0.2,0.2-0.3,0.2
					c-0.6,0-1.2,0-1.7,0c-0.6,0-1.2-0.2-1.6-0.7c-0.2-0.3-0.4-0.6-0.6-0.9c-0.7-1.3-1.3-2.5-2-3.8c-0.3-0.5-0.5-1.1-0.7-1.7
					C5.5,31.6,5.5,31.4,5.4,31.1z M15.1,34.2c0.7,0,1.4,0,2,0c0.5,0,1-0.2,1.2-0.6c0.3-0.5,0.6-1.1,0.8-1.6c0.4-0.7,0.3-1.4-0.1-2.1
					C18.1,28,17,26.2,16,24.4c-0.3-0.5-0.5-0.9-0.8-1.4c0,0-0.1,0.1-0.1,0.1c-1.3,2.3-2.7,4.6-4,6.9c-0.3,0.5-0.4,1-0.2,1.5
					c0.3,0.7,0.6,1.4,1,2.1c0.3,0.4,0.8,0.7,1.3,0.6c0.3,0,0.7,0,1,0C14.5,34.2,14.8,34.2,15.1,34.2C15.1,34.1,15,34.1,15,34
					c-0.4-0.7-0.9-1.5-1.3-2.2c-0.3-0.5-0.4-1.1-0.1-1.7c0.5-0.9,1-1.7,1.6-2.6c0.2,0.4,0.5,0.8,0.7,1.1c0.2,0.4,0.4,0.8,0.7,1.1
					c0.5,0.7,0.4,1.4,0,2.2C16.1,32.7,15.6,33.4,15.1,34.2z"/>
			</g>
		</g>
		<g>
			<path fill="#4283C4" d="M23.5,38c0,0.4-0.3,0.7-0.7,0.7c-0.4,0-0.8-0.3-0.8-0.7c0-0.4,0.3-0.7,0.8-0.7
				C23.2,37.3,23.5,37.6,23.5,38z M22.2,38c0,0.3,0.2,0.6,0.6,0.6c0.3,0,0.6-0.3,0.6-0.6c0-0.3-0.2-0.6-0.6-0.6
				C22.4,37.5,22.2,37.7,22.2,38z M22.6,38.4h-0.2v-0.7c0.1,0,0.2,0,0.3,0c0.1,0,0.2,0,0.3,0.1c0,0,0.1,0.1,0.1,0.2
				c0,0.1-0.1,0.1-0.2,0.2v0c0.1,0,0.1,0.1,0.1,0.2c0,0.1,0,0.2,0.1,0.2h-0.2c0,0,0-0.1-0.1-0.2c0-0.1-0.1-0.1-0.2-0.1h-0.1V38.4z
				 M22.6,38L22.6,38c0.2,0,0.2,0,0.2-0.1c0-0.1,0-0.1-0.2-0.1c0,0-0.1,0-0.1,0V38z"/>
		</g>
	</g>
	<g>
		<g>
			<path d="M170.2,25.2c0,0.7-0.5,1.2-1.3,1.2c-0.7,0-1.3-0.5-1.3-1.2c0-0.7,0.6-1.2,1.3-1.2C169.6,24,170.2,24.6,170.2,25.2z
				 M168,25.2c0,0.5,0.4,1,1,1c0.5,0,0.9-0.4,0.9-1c0-0.5-0.4-1-0.9-1C168.4,24.3,168,24.7,168,25.2z M168.7,25.9h-0.3v-1.2
				c0.1,0,0.3,0,0.5,0c0.2,0,0.3,0,0.4,0.1c0.1,0.1,0.1,0.1,0.1,0.3c0,0.1-0.1,0.2-0.3,0.3v0c0.1,0,0.2,0.1,0.2,0.3
				c0,0.2,0.1,0.3,0.1,0.3h-0.3c0,0-0.1-0.2-0.1-0.3c0-0.1-0.1-0.2-0.3-0.2h-0.1V25.9z M168.7,25.2h0.1c0.2,0,0.3-0.1,0.3-0.2
				c0-0.1-0.1-0.2-0.3-0.2c-0.1,0-0.1,0-0.2,0V25.2z"/>
		</g>
		<g>
			<path d="M37.4,33.4c-1.3,0.6-2.6,0.7-4,0.7c-3.5,0-5.6-2.2-5.6-5.5c0-3.2,2.2-5.3,5.9-5.3c1.4,0,2.6,0.3,3.2,0.7L36.2,26
				c-0.6-0.3-1.5-0.5-2.2-0.5c-2,0-3.4,1.3-3.4,3.2c0,1.8,1.2,3.3,3.1,3.3c0.5,0,0.9-0.1,1-0.2l0.1-3.5h2.6L37.4,33.4z"/>
			<path d="M46,33c-0.9,0.7-2.2,1.1-3.4,1.1c-2.7,0-4-1.9-4-3.8c0-2.2,1.7-4.1,4.1-4.1c2.9,0,3.8,2,3.8,4.5h-5.2
				c0,0.6,0.4,1.5,1.8,1.5c0.9,0,1.4-0.3,2.1-0.7L46,33z M44.1,29.2c0-0.8-0.4-1.5-1.2-1.5c-0.8,0-1.5,0.7-1.6,1.5H44.1z"/>
			<path d="M51.3,26.1c2.8,0,4.2,1.7,4.2,4s-1.4,4-4.2,4s-4.2-1.7-4.2-4S48.5,26.1,51.3,26.1z M51.3,32.1c1.2,0,1.6-1.1,1.6-2
				s-0.4-2-1.6-2s-1.6,1.1-1.6,2S50.1,32.1,51.3,32.1z"/>
			<path d="M56.7,26.4h2.6v1h0c0.4-0.6,0.9-1.3,1.9-1.3c0.3,0,0.6,0,0.9,0.1l-0.3,2.5c-0.3-0.1-0.5-0.1-0.9-0.1
				c-0.9,0-1.5,0.7-1.5,0.9l0,4.3h-2.6L56.7,26.4z"/>
			<path d="M69.9,28.1L68.4,28c0.2,0.3,0.3,0.6,0.3,1c0,1.5-1.7,2.2-3.2,2.2c-0.5,0-1-0.1-1.1-0.1s-0.2,0.2-0.2,0.4
				c0,0.3,0.3,0.4,0.9,0.4c1.7,0.1,4.2,0.4,4.2,2.6c0,2.2-2.3,3-4.2,3c-1.4,0-3.8-0.3-3.8-2.1c0-0.7,0.6-1.4,1.6-1.8v0
				c-1.1-0.2-1.5-0.6-1.5-1.2c0-0.9,1.2-1.5,1.9-1.7c-0.9-0.5-1.4-1-1.4-2c0-1.9,1.7-2.6,3.3-2.6c0.6,0,1.5,0.1,2,0.4l2.5-0.1V28.1z
				 M65.4,35.8c0.8,0,1.6-0.3,1.6-1c0-0.5-0.5-0.8-2.3-1c-0.5,0.3-0.8,0.6-0.8,1C63.8,35.6,64.6,35.8,65.4,35.8z M64.3,28.6
				c0,0.6,0.4,1.1,1.1,1.1c0.6,0,1.1-0.5,1.1-1.1c0-0.6-0.5-1.1-1.1-1.1C64.8,27.5,64.3,28,64.3,28.6z"/>
			<path d="M70.4,26.4H73l-0.1,7.4h-2.6L70.4,26.4z M70.4,23.1H73v2.1h-2.6V23.1z"/>
			<path d="M74.4,27.4c1.3-0.8,2.5-1.2,4-1.2c1.4,0,2.3,0.7,2.3,2.1v3.6c0,0.3,0.1,0.5,0.4,0.5c0.1,0,0.2,0,0.3-0.1l0.3,1.4
				c-0.3,0.3-1.6,0.5-2,0.5c-0.7,0-1.2-0.3-1.3-0.8c-0.6,0.5-1.4,0.8-2.2,0.8c-1.4,0-2.4-0.8-2.4-2.1c0-1.5,0.9-2.1,2.5-2.5
				c0.5-0.1,1.2-0.2,1.9-0.3v-0.3c0-0.6-0.3-0.9-0.8-0.9c-0.8,0-1.5,0.5-2.2,0.8L74.4,27.4z M78.3,30.4c-0.1,0-0.2,0-0.4,0.1
				c-0.7,0-1.5,0.4-1.5,1.2c0,0.5,0.5,0.8,0.9,0.8c0.5,0,1-0.3,1-0.5V30.4z"/>
			<path d="M87.1,23.6h3.3l3.6,6.7h0l0.1-6.7h2.4l-0.1,10.2h-3.1l-3.7-6.7h0l-0.1,6.7H87L87.1,23.6z"/>
			<path d="M98.1,27.4c1.3-0.8,2.5-1.2,4-1.2c1.4,0,2.3,0.7,2.3,2.1v3.6c0,0.3,0.1,0.5,0.4,0.5c0.1,0,0.2,0,0.3-0.1l0.3,1.4
				c-0.3,0.3-1.6,0.5-2,0.5c-0.7,0-1.2-0.3-1.3-0.8c-0.6,0.5-1.4,0.8-2.2,0.8c-1.4,0-2.4-0.8-2.4-2.1c0-1.5,0.9-2.1,2.5-2.5
				c0.5-0.1,1.2-0.2,1.9-0.3v-0.3c0-0.6-0.3-0.9-0.8-0.9c-0.8,0-1.5,0.5-2.2,0.8L98.1,27.4z M101.9,30.4c-0.1,0-0.2,0-0.4,0.1
				c-0.7,0-1.5,0.4-1.5,1.2c0,0.5,0.5,0.8,0.9,0.8c0.5,0,1-0.3,1-0.5V30.4z"/>
			<path d="M105.3,26.4h1.1l0.1-2.5h2.5l-0.1,2.5h2.1l0,1.9h-2.1c0,1-0.1,2.1-0.1,2.8c0,0.6,0.2,1,0.7,1c0.4,0,0.7-0.2,1-0.4
				l0.6,1.7c-0.8,0.5-1.7,0.7-2.6,0.7c-2.1,0-2.2-1.3-2.2-3c0-0.9,0.1-1.8,0.1-2.8h-1.1L105.3,26.4z"/>
			<path d="M116.7,26.4h2.6l-0.1,7.4h-2.6V33c-0.6,0.6-1.5,1.1-2.4,1.1c-1.6,0-2.5-0.9-2.5-2.9c0-1.5,0-3.1,0-4.8h2.6
				c0,1.4,0,2.9,0,4.4c0,0.6,0.2,1.1,0.9,1.1c0.4,0,1-0.4,1.4-0.7L116.7,26.4z"/>
			<path d="M120.8,26.4h2.6v1h0c0.4-0.6,0.9-1.3,1.9-1.3c0.3,0,0.6,0,0.9,0.1l-0.3,2.5c-0.3-0.1-0.5-0.1-0.9-0.1
				c-0.9,0-1.5,0.7-1.5,0.9l0,4.3h-2.6L120.8,26.4z"/>
			<path d="M126.4,27.4c1.3-0.8,2.5-1.2,4-1.2c1.4,0,2.3,0.7,2.3,2.1v3.6c0,0.3,0.1,0.5,0.4,0.5c0.1,0,0.2,0,0.3-0.1l0.3,1.4
				c-0.3,0.3-1.6,0.5-2,0.5c-0.7,0-1.2-0.3-1.3-0.8c-0.6,0.5-1.4,0.8-2.2,0.8c-1.4,0-2.4-0.8-2.4-2.1c0-1.5,0.9-2.1,2.5-2.5
				c0.5-0.1,1.2-0.2,1.9-0.3v-0.3c0-0.6-0.3-0.9-0.8-0.9c-0.8,0-1.5,0.5-2.2,0.8L126.4,27.4z M130.3,30.4c-0.1,0-0.2,0-0.4,0.1
				c-0.7,0-1.5,0.4-1.5,1.2c0,0.5,0.5,0.8,0.9,0.8c0.5,0,1-0.3,1-0.5V30.4z"/>
			<path d="M134.5,22.8h2.6l-0.1,11h-2.6L134.5,22.8z"/>
			<path d="M152.1,33.4c-1.3,0.6-2.6,0.7-4,0.7c-3.5,0-5.6-2.2-5.6-5.5c0-3.2,2.2-5.3,5.9-5.3c1.4,0,2.6,0.3,3.2,0.7l-0.8,1.9
				c-0.6-0.3-1.5-0.5-2.2-0.5c-2,0-3.4,1.3-3.4,3.2c0,1.8,1.2,3.3,3.1,3.3c0.5,0,0.9-0.1,1-0.2l0.1-3.5h2.6L152.1,33.4z"/>
			<path d="M153.7,27.4c1.3-0.8,2.5-1.2,4-1.2c1.4,0,2.3,0.7,2.3,2.1v3.6c0,0.3,0.1,0.5,0.4,0.5c0.1,0,0.2,0,0.3-0.1l0.3,1.4
				c-0.3,0.3-1.6,0.5-2,0.5c-0.7,0-1.2-0.3-1.3-0.8c-0.6,0.5-1.4,0.8-2.2,0.8c-1.4,0-2.4-0.8-2.4-2.1c0-1.5,0.9-2.1,2.5-2.5
				c0.5-0.1,1.2-0.2,1.9-0.3v-0.3c0-0.6-0.3-0.9-0.8-0.9c-0.8,0-1.5,0.5-2.2,0.8L153.7,27.4z M157.6,30.4c-0.1,0-0.2,0-0.4,0.1
				c-0.7,0-1.5,0.4-1.5,1.2c0,0.5,0.5,0.8,0.9,0.8c0.5,0,1-0.3,1-0.5V30.4z"/>
			<path d="M161.9,31.9c0.5,0.2,1.5,0.4,2.1,0.4c0.4,0,0.9-0.2,0.9-0.6c0-0.3-0.1-0.4-1.5-0.8c-1.3-0.4-2-0.9-2-2.3
				c0-1.8,1.7-2.5,3.3-2.5c1.3,0,2.4,0.3,2.7,0.5l-0.5,1.6c-0.5-0.1-1.1-0.3-1.8-0.3c-0.4,0-1,0.2-1,0.6c0,0.3,0.1,0.5,1,0.7
				c1.5,0.3,2.5,0.8,2.5,2.4c0,1.9-1.7,2.5-3.5,2.5c-1.1,0-2.4-0.3-2.8-0.5L161.9,31.9z"/>
		</g>
	</g>
</g>
</svg>
