<?xml version="1.0" encoding="utf-8"?>
<!-- Generator: Adobe Illustrator 18.0.0, SVG Export Plug-In . SVG Version: 6.00 Build 0)  -->
<!DOCTYPE svg PUBLIC "-//W3C//DTD SVG 1.1//EN" "http://www.w3.org/Graphics/SVG/1.1/DTD/svg11.dtd">
<svg version="1.1" xmlns="http://www.w3.org/2000/svg" xmlns:xlink="http://www.w3.org/1999/xlink" x="0px" y="0px"
	 viewBox="0 0 81.8 113" enable-background="new 0 0 81.8 113" xml:space="preserve">
<g id="Layer_1">
</g>
<g id="Layer_2">
	<g>
		<g>
			
				<path fill="none" stroke="#FFFFFF" stroke-width="1.2" stroke-linecap="round" stroke-linejoin="round" stroke-miterlimit="10" d="
				M7.8,19.5c0,0-5.4-0.7-5.4,2.8s5.3,7.3,5.3,7.3v3.3c0,0-6.7-2.2-7.6,2.6s7.6,6.7,7.6,6.7S0,42,1,47.9c0.8,3.3,4.4,2.1,6.7,0.2
				v1.8c0,0-3.7,0-5.1,1.2S1,55.9,3.5,57.4c2.2,1.9,4.6,3.9,4.6,3.9s0.1,2.6,3,2.3c0,0,1.7,2.3,4.2,4.2c2.5,2,2.3,4.3,4.2,6.1
				c6.9,6.2,10.3,18.7,20.5,17.4c0,0,16.4,17,17.5,20.5"/>
			<path fill="none" stroke="#FFFFFF" stroke-width="1.2" stroke-miterlimit="10" d="M45.9,22.9c0,0-7.6-1.9-3.2-5.2"/>
			<path fill="none" stroke="#FFFFFF" stroke-width="1.2" stroke-miterlimit="10" d="M5.8,51.6c0,0-1,1.5-0.3,4.1
				C1.6,54.7,4.4,51.6,5.8,51.6z"/>
			<path fill="none" stroke="#FFFFFF" stroke-width="1.2" stroke-miterlimit="10" d="M1.1,48.2c0,0,0-3.3,2.4-4.2l0-1"/>
			<path fill="none" stroke="#FFFFFF" stroke-width="1.2" stroke-miterlimit="10" d="M45.7,40.3c0,0-9.6,11.9-9.3,20.5
				c0.4,6.2,2.4,7.6,2.4,7.6"/>
			<path fill="none" stroke="#FFFFFF" stroke-width="1.2" stroke-miterlimit="10" d="M42.3,31.5c-0.2,2,0.7,6.2,2.4,10"/>
			<path fill="none" stroke="#FFFFFF" stroke-width="1.2" stroke-miterlimit="10" d="M42.2,33.4c0,0-1.8-1.6-2.5-2.8
				c-2.7-4.7-3.3-9.4-0.5-12.4c1.5-1.6,2.8-0.8,3.7-0.5c0.4,0.2,1.4,2.8,2.6,4.5c1.3,1.9,3.5,4.2,4.2,4.9c0.2,0.2,0.3,0.4,0.4,0.6
				c0.3,0.8,1,2.9,1.2,3.8c0.2,1.1,5.5,10.2,5.5,10.2s3,2.7,3.4,15.2c0.3,9.6,1.9,11.5,3.7,13.4c3.6,3.6,18,23.2,18,23.2"/>
			<line fill="none" stroke="#FFFFFF" stroke-width="1.2" stroke-miterlimit="10" x1="44.1" y1="40.4" x2="39.7" y2="36.8"/>
			<path fill="none" stroke="#FFFFFF" stroke-width="1.2" stroke-miterlimit="10" d="M36.6,63.9c0,0-15,0.1-13.6,9.9"/>
			<path fill="none" stroke="#FFFFFF" stroke-width="1.2" stroke-miterlimit="10" d="M24.8,64.5c0,0-5.5,4-5.1,9.5"/>
			<path fill="none" stroke="#FFFFFF" stroke-width="1.2" stroke-miterlimit="10" d="M15.4,67.9c0,0-0.1-3.8,1-4.2"/>
		</g>
		<g>
			<path fill="none" stroke="#FFFFFF" stroke-width="1.2" stroke-miterlimit="10" d="M6.3,55.9c0,0,2.7,0.6,3.3-1.6
				c0.5-1.7-0.4-3.9-2.1-4.4"/>
			<g>
				<g>
					<defs>
						<path id="SVGID_1_" d="M36.8,64.3H10.6c-1.7,0-3.1-1.4-3.1-3.1V56c0,0,2.3-0.3,2.3-2.7c0-2.9-2.3-3.5-2.3-3.5V3.1
							C7.6,1.4,8.9,0,10.6,0H37c1.7,0,3.1,1.4,3.1,3.1v14.3c0,0-2.6,1.8-2.6,5.6c0,4.5,2.6,8,2.6,8v18.1
							C40.1,49.2,35.5,55.8,36.8,64.3z"/>
					</defs>
					<clipPath id="SVGID_2_">
						<use xlink:href="#SVGID_1_"  overflow="visible"/>
					</clipPath>
					<path clip-path="url(#SVGID_2_)" fill="none" stroke="#FFFFFF" stroke-width="1.2" stroke-miterlimit="10" d="M37,63.7H10.7
						c-1.5,0-2.8-1.3-2.8-2.8V3.4c0-1.5,1.3-2.8,2.8-2.8H37c1.5,0,2.8,1.3,2.8,2.8v57.5C39.8,62.5,38.5,63.7,37,63.7z"/>
					<path clip-path="url(#SVGID_2_)" fill="none" stroke="#FFFFFF" stroke-width="1.2" stroke-miterlimit="10" d="M34.7,52.8H13.4
						c-0.8,0-1.4-0.6-1.4-1.4v-44C12,6.6,12.6,6,13.4,6h21.2c0.8,0,1.4,0.6,1.4,1.4v44C36.1,52.1,35.4,52.8,34.7,52.8z"/>
					
						<circle clip-path="url(#SVGID_2_)" fill="none" stroke="#FFFFFF" stroke-width="1.2" stroke-miterlimit="10" cx="24" cy="60" r="2"/>
				</g>
				<path fill="#FFFFFF" d="M31.3,4.1h-15c-0.2,0-0.4-0.2-0.4-0.4v0c0-0.2,0.2-0.4,0.4-0.4h15c0.2,0,0.4,0.2,0.4,0.4v0
					C31.7,3.9,31.5,4.1,31.3,4.1z"/>
			</g>
		</g>
	</g>
</g>
</svg>
