<?xml version="1.0" encoding="utf-8"?>
<!-- Generator: Adobe Illustrator 18.0.0, SVG Export Plug-In . SVG Version: 6.00 Build 0)  -->
<!DOCTYPE svg PUBLIC "-//W3C//DTD SVG 1.1//EN" "http://www.w3.org/Graphics/SVG/1.1/DTD/svg11.dtd">
<svg version="1.1" id="Isolation_Mode" xmlns="http://www.w3.org/2000/svg" xmlns:xlink="http://www.w3.org/1999/xlink" x="0px"
	 y="0px" viewBox="0 0 532.1 908.6" enable-background="new 0 0 532.1 908.6" xml:space="preserve">
<g>
	<g>
	</g>
</g>
<path fill="#FFFFFF" d="M437.7,385.8c1.9-29.3,2-120.1,6.7-195.8c2.2-35.3,25.9-84.8,56.2-39.3c10.3,15.4,7.9,63.2,11.4,91.2
	c3.7,30.4,7.8,169.9,16.7,230.8l3.4,47.8c0.3,41.8-5.1,105.6-5.1,105.6c-9.1,69.3-35.1,142.5-70,202.3
	c-15.7,34.6-12.5,80.2-12.5,80.2H157.5l1.6-28.3c7.1-52.4,19.6-93.8-2.1-144.2l-9.4-16.7c-20.7-18.3-47.9-31.6-68.7-47.7
	c-36.5-28.1-40.7-68.7-41.3-114.5c-0.5-43.6-9.8-89.7-17.5-135.1C16.2,399.4,0.3,375.2,0,353.6c-0.3-29.5,22.4-26.8,45.7-14.5
	c31,16.5,50.1,50.6,63.5,81.8c6.6,15.2,10.3,51,17.8,75.8c0,0,6.8-317.5,7.3-352.7c0.6-40.5,45.6-97.1,80.4-45
	c11.8,17.6,5.7,62.6,9.7,94.6c4.3,34.8,0,111,0,186.7c5.6-46,9.2-272.7,10.1-316.8c0.8-39.2,46.9-93.8,82.1-43.1
	c11.9,17.2,9,70.2,12.8,101.3c4.2,33.7,6.3,170.8,6.3,263.9v-7.6c0-100.5,4.9-224.7,5.6-270.3c0.6-40.5,47.1-98,80.4-45
	C448.3,105.2,437.7,385.8,437.7,385.8z"/>
</svg>
